<svg width="48" height="46" viewBox="0 0 48 46" fill="none" xmlns="http://www.w3.org/2000/svg">
<path d="M39.1581 23C39.1581 31.2842 32.3716 38 24.0002 38C15.6287 38 8.84229 31.2842 8.84229 23C8.84229 14.7157 15.6287 8 24.0002 8C32.3716 8 39.1581 14.7157 39.1581 23Z" fill="#00AFFF"/>
<path d="M15.3364 23.9813C14.4361 23.116 14.2578 21.8895 15.1581 21.0241C16.0583 20.1588 17.5179 20.1588 18.4182 21.0241L23.716 26.1163C24.6162 26.9818 24.6162 28.3848 23.716 29.25C22.8157 30.1153 21.5344 29.9388 20.6341 29.0735L15.3364 23.9813Z" fill="white"/>
<path d="M30.2107 16.75C31.111 15.8846 32.5707 15.8846 33.4709 16.75C34.3713 17.6153 34.3713 19.0183 33.4709 19.8837L23.716 29.25C22.8157 30.1152 21.5345 29.9387 20.6342 29.0735C19.7339 28.2082 19.5557 26.9817 20.4559 26.1162L30.2107 16.75Z" fill="white"/>
</svg>
