<svg width="18" height="18" viewBox="0 0 18 18" fill="none" xmlns="http://www.w3.org/2000/svg">
<path fill-rule="evenodd" clip-rule="evenodd" d="M6.46879 8.4375C8.17742 8.4375 9.56254 7.05238 9.56254 5.34375C9.56254 3.63512 8.17742 2.25 6.46879 2.25C4.76016 2.25 3.37504 3.63512 3.37504 5.34375C3.37504 7.05238 4.76016 8.4375 6.46879 8.4375ZM12.9375 9.5625C14.1802 9.5625 15.1875 8.55514 15.1875 7.3125C15.1875 6.06986 14.1802 5.0625 12.9375 5.0625C11.6949 5.0625 10.6875 6.06986 10.6875 7.3125C10.6875 8.55514 11.6949 9.5625 12.9375 9.5625ZM11.9523 11.7632C12.3315 12.326 12.5969 12.9474 12.717 13.5993C12.9264 14.735 11.9651 15.4876 11.1 15.4876H2.25004C1.38502 15.4876 0.423727 14.735 0.633056 13.5993C1.09488 11.0937 3.70198 9.03757 6.67504 9.03757C8.48947 9.03757 10.1676 9.80339 11.305 10.9698C11.3814 10.8103 11.5315 10.6893 11.7192 10.6577C11.8321 10.6387 11.9958 10.6339 12.1368 10.632C12.2935 10.6299 12.4771 10.6313 12.6568 10.634C12.841 10.6368 13.0154 10.6407 13.1607 10.6439C13.3108 10.6473 13.4298 10.6499 13.4967 10.6499C14.5225 10.6499 15.437 11.0391 16.0637 11.7232C16.6926 12.4099 16.9999 13.3595 16.8709 14.4123C16.8331 14.7207 16.5525 14.94 16.2441 14.9023C15.9358 14.8645 15.7164 14.5839 15.7542 14.2755C15.8457 13.5284 15.6271 12.9122 15.2341 12.4831C14.8387 12.0515 14.235 11.7749 13.4967 11.7749C13.4233 11.7749 13.2806 11.7718 13.1123 11.7681C12.9648 11.7649 12.7973 11.7613 12.6399 11.7589C12.4638 11.7563 12.2926 11.755 12.1519 11.7569C12.0814 11.7578 12.022 11.7595 11.9752 11.7619C11.9667 11.7624 11.9591 11.7628 11.9523 11.7632ZM11.6107 13.8032C11.2608 11.9053 9.18435 10.1626 6.67504 10.1626C4.16573 10.1626 2.08924 11.9053 1.73942 13.8032C1.68311 14.1087 1.93938 14.3626 2.25004 14.3626H11.1C11.4107 14.3626 11.667 14.1087 11.6107 13.8032Z" fill="white"/>
<path d="M13.4966 11.7751C14.1633 11.7751 14.7666 12.1312 15.1949 12.7165C15.5313 13.1762 15.7398 13.754 15.7708 14.3435H12.375V11.7821C12.7342 11.7743 13.1795 11.7748 13.4104 11.7751C13.444 11.7751 13.473 11.7751 13.4966 11.7751Z" fill="white" stroke="white" stroke-width="1.125" stroke-linecap="round"/>
<path d="M6.67487 10.1624C9.18418 10.1624 11.2607 11.9051 11.6105 13.803C11.6668 14.1085 11.4106 14.3624 11.0999 14.3624H2.24987C1.93921 14.3624 1.68294 14.1085 1.73925 13.803C2.08907 11.9051 4.16556 10.1624 6.67487 10.1624Z" fill="white"/>
</svg>
