<svg width="18" height="18" viewBox="0 0 18 18" fill="none" xmlns="http://www.w3.org/2000/svg">
<path fill-rule="evenodd" clip-rule="evenodd" d="M9 2C5.13402 2 2 5.13402 2 9C2 12.866 5.13402 16 9 16C12.866 16 16 12.866 16 9C16 5.13402 12.866 2 9 2ZM12.4614 6.35757C12.4486 6.35782 12.4034 6.35894 12.3594 6.36107C12.3157 6.36244 12.2357 6.36936 12.1805 6.37645C12.1253 6.38354 12.0058 6.40311 11.9147 6.4196C11.8615 6.42917 11.7867 6.44353 11.714 6.45789C11.6619 6.46823 11.611 6.47856 11.5698 6.48711C11.4712 6.5077 11.2611 6.55436 11.103 6.59042L10.9569 6.62426C10.8204 6.65579 10.6688 6.69082 10.5729 6.71381C10.4773 6.73662 10.2754 6.78524 10.0658 6.83583L9.82347 6.89436C9.54388 6.96246 8.9777 7.10499 8.56464 7.20992C8.15149 7.31562 7.58958 7.45961 7.31622 7.53087C7.04304 7.60145 6.37833 7.77363 5.84043 7.91309C5.30176 8.05245 4.82957 8.17516 4.79111 8.18567C4.75266 8.19618 4.69037 8.21489 4.65294 8.22856C4.6156 8.24155 4.5545 8.26727 4.51648 8.28462C4.47837 8.30197 4.42274 8.33606 4.3913 8.35896C4.35105 8.39023 4.32858 8.41382 4.31191 8.44355C4.29337 8.47526 4.28722 8.49534 4.28406 8.52943C4.28303 8.54191 4.28303 8.55396 4.28423 8.56583C4.28585 8.58292 4.2897 8.59967 4.29576 8.6171C4.30414 8.64026 4.32336 8.67563 4.339 8.69546C4.35464 8.7152 4.38762 8.74904 4.4136 8.76971C4.43958 8.79108 4.48828 8.82517 4.52186 8.84551C4.55527 8.86653 4.61953 8.90233 4.66311 8.92574C4.70686 8.94847 4.84178 9.01641 4.96218 9.07682C5.08267 9.13646 5.23955 9.21311 5.31082 9.24695C5.38208 9.28079 5.50325 9.33607 5.58066 9.36931L5.62006 9.38632C5.68269 9.41323 5.73832 9.43716 5.75302 9.44314C5.77062 9.45049 5.79249 9.4592 5.80249 9.46228C5.8089 9.46476 5.82146 9.46912 5.8347 9.47382L5.8559 9.48125C5.87572 9.48885 5.91836 9.50389 5.95186 9.51517C5.98527 9.52722 6.06627 9.54679 6.13249 9.5602C6.18539 9.57029 6.22205 9.57635 6.254 9.57952C6.27844 9.58191 6.30015 9.58268 6.32433 9.58225C6.34415 9.58191 6.37115 9.58046 6.3985 9.57823C6.42499 9.5761 6.45182 9.57319 6.47258 9.5702C6.51488 9.56414 6.58623 9.54978 6.6316 9.53807C6.67715 9.52568 6.75704 9.49996 6.80968 9.4804C6.86232 9.46083 7.0603 9.37239 7.25009 9.28335L7.59974 9.12006C7.69023 9.07767 7.77261 9.03914 7.82969 9.01273L8.3405 8.77339C8.45022 8.72161 8.7064 8.60275 8.98231 8.47517L9.3007 8.32794C9.67719 8.15474 10.0133 7.99999 10.0479 7.98512L10.2133 7.91266C10.2698 7.88771 10.3558 7.85156 10.4039 7.83208C10.4521 7.81251 10.5072 7.79636 10.5262 7.79491C10.5453 7.79337 10.5722 7.79388 10.5861 7.79602C10.6 7.79824 10.6239 7.80875 10.6388 7.81866C10.6569 7.83105 10.6691 7.84755 10.6754 7.86805C10.681 7.8848 10.6838 7.91462 10.6828 7.93547C10.6804 7.96974 10.6772 7.97529 10.6407 8.01169C10.6186 8.03306 10.5707 8.07441 10.5338 8.10398C10.4968 8.13346 10.3937 8.2113 10.3044 8.27778C10.2588 8.31171 10.1848 8.36511 10.1028 8.42347C10.0244 8.47944 9.93866 8.53986 9.86355 8.59215C9.70991 8.69965 9.51517 8.83448 9.4293 8.89327C9.34351 8.95121 9.24678 9.01726 9.21465 9.03999L9.08417 9.12937C9.04469 9.15552 8.95984 9.21285 8.89507 9.25686C8.8303 9.30087 8.74878 9.35573 8.71434 9.37888C8.69571 9.3911 8.66393 9.41229 8.62864 9.43613L8.53362 9.5009C8.49465 9.52697 8.43791 9.56576 8.38263 9.60413C8.34614 9.62942 8.31034 9.65454 8.28077 9.67556C8.20652 9.72786 8.07963 9.81775 7.99913 9.87577C7.91804 9.93302 7.82994 10.0011 7.80209 10.0254C7.775 10.0497 7.73638 10.0895 7.71613 10.1134C7.69656 10.1374 7.67135 10.1734 7.66075 10.1928C7.65007 10.2129 7.63623 10.2483 7.63051 10.2708C7.62299 10.299 7.62068 10.328 7.62393 10.3601C7.6264 10.3868 7.63435 10.4272 7.64136 10.4494C7.64896 10.4725 7.66597 10.512 7.67938 10.5367C7.6928 10.5614 7.72194 10.6051 7.74373 10.6334C7.75518 10.6481 7.77192 10.6684 7.78936 10.6885C7.80525 10.7068 7.82166 10.725 7.83524 10.7389C7.86361 10.7682 7.98119 10.8801 8.09655 10.9864C8.21199 11.0927 8.30666 11.1829 8.30752 11.1868C8.30778 11.1898 8.31171 11.1935 8.31538 11.1941C8.31538 11.1941 8.354 11.2273 8.41006 11.2792C8.45706 11.3226 8.51764 11.3792 8.58284 11.4409C8.6635 11.5172 8.78552 11.6315 8.91053 11.748C9.00641 11.8373 9.10416 11.9279 9.18645 12.0036C9.37581 12.1788 9.58328 12.3726 9.64771 12.4355C9.71213 12.4984 9.80955 12.5905 9.86338 12.6396C9.9179 12.6888 9.99565 12.7531 10.036 12.7828C10.0764 12.8125 10.137 12.8521 10.1709 12.8703C10.204 12.889 10.2636 12.9158 10.304 12.9312C10.3628 12.9533 10.3955 12.9607 10.4758 12.9703C10.5397 12.9789 10.5898 12.9808 10.6158 12.9774C10.6252 12.9756 10.6393 12.9716 10.6551 12.9663C10.6757 12.9594 10.6991 12.9501 10.7185 12.9408C10.7655 12.919 10.7952 12.8973 10.8412 12.8533C10.8748 12.821 10.9255 12.7612 10.9545 12.7206C10.9834 12.68 11.0239 12.6135 11.0445 12.5731C11.0652 12.5326 11.0956 12.4682 11.1123 12.4294C11.129 12.3906 11.176 12.2641 11.2166 12.1485L11.3407 11.7955L11.4104 11.5919C11.4216 11.5583 11.4463 11.4877 11.4651 11.435C11.4832 11.3822 11.54 11.2179 11.5895 11.0707C11.6397 10.9235 11.7128 10.7078 11.7521 10.592C11.7906 10.4761 11.8655 10.2539 11.9171 10.0986C11.9685 9.94344 12.0293 9.75802 12.0525 9.68718L12.0875 9.57986C12.1091 9.51355 12.1339 9.43716 12.1542 9.37581L12.2273 9.15022C12.2341 9.12646 12.2573 9.05554 12.2777 8.99257C12.2982 8.9295 12.332 8.825 12.352 8.75963L12.4011 8.60437L12.5037 8.27924L12.5055 8.27351C12.513 8.24864 12.5413 8.15636 12.5724 8.05297C12.6071 7.93795 12.6536 7.78124 12.6762 7.70425L12.6982 7.62982C12.7141 7.57667 12.7285 7.52814 12.7345 7.50643C12.7419 7.48157 12.7575 7.42602 12.7729 7.37074L12.7854 7.32631C12.8044 7.25846 12.8284 7.17275 12.8396 7.13533C12.8507 7.09799 12.8705 7.00092 12.8832 6.92017C12.9011 6.80703 12.9049 6.75875 12.9026 6.71244C12.9013 6.69279 12.8985 6.66903 12.8953 6.64844C12.8931 6.634 12.8906 6.62109 12.8883 6.61229C12.882 6.59025 12.8663 6.55615 12.853 6.53599C12.8457 6.52437 12.8346 6.50984 12.8233 6.49685C12.8151 6.48745 12.8068 6.47882 12.7999 6.47267C12.7834 6.45806 12.7452 6.43396 12.7146 6.41858C12.6849 6.40371 12.6617 6.3944 12.6283 6.38594C12.6123 6.38192 12.5939 6.37816 12.5714 6.37415C12.5232 6.36509 12.474 6.35808 12.4614 6.35757Z" fill="#00AFFF"/>
</svg>
