<svg width="34" height="32" viewBox="0 0 34 32" fill="none" xmlns="http://www.w3.org/2000/svg">
<path fill-rule="evenodd" clip-rule="evenodd" d="M10.2889 3.51517C10.2382 3.52552 10.1725 3.53892 10.1083 3.55335L10.0962 3.55609C9.98164 3.57923 9.79425 3.63419 9.67973 3.67468C9.5652 3.71518 9.41164 3.7817 9.34137 3.8222C9.26849 3.8598 9.13055 3.95236 9.03164 4.02757C8.93274 4.09988 8.76877 4.25896 8.66726 4.37756C8.56575 4.49904 8.42781 4.70152 8.36274 4.82589C8.29767 4.95316 8.21178 5.14118 8.17534 5.24531C8.1389 5.34944 8.08945 5.51142 8.06863 5.60687C8.0452 5.70232 8.01397 5.89033 7.99836 6.02628C7.98014 6.16512 7.97493 6.43991 7.98274 6.66263C7.99055 6.87667 8.01397 7.15724 8.04 7.28451C8.06342 7.41178 8.11288 7.61426 8.14931 7.73285C8.18575 7.85144 8.26904 8.06838 8.33151 8.21011C8.39657 8.35184 8.49548 8.54853 8.55274 8.64399C8.6126 8.73944 8.74534 8.93034 8.84945 9.07208C8.95573 9.21036 9.04136 9.32855 9.04205 9.33808C9.04205 9.34675 8.40959 9.35265 6.2311 9.35265C6.19632 9.36489 6.16341 9.37677 6.13227 9.38831L6.03068 9.42496C5.91877 9.46256 5.7574 9.54355 5.67151 9.60719C5.58562 9.66793 5.45288 9.7952 5.37479 9.89065C5.29931 9.98321 5.20562 10.1278 5.16918 10.2059C5.13274 10.284 5.08068 10.4229 5.04945 10.5096C5.03504 10.5508 5.02443 10.5838 5.01652 10.658C5.00842 10.6927 5.00235 10.7228 5 10.741L6.67271 26.333H8.14931L6.46534 11.0014H16.1996V26.253H17.8004V11.0014H27.5347L25.6685 26.253H27.1451L29 10.741C28.9977 10.7228 28.9916 10.6927 28.9835 10.658C28.9756 10.5838 28.965 10.5508 28.9505 10.5096C28.9193 10.4229 28.8673 10.284 28.8308 10.2059C28.7944 10.1278 28.7007 9.98321 28.6252 9.89065C28.5471 9.7952 28.4144 9.66793 28.3285 9.60719C28.2426 9.54355 28.0812 9.46256 27.9693 9.42496L27.8677 9.38831C27.8366 9.37677 27.8037 9.36489 27.7689 9.35265C25.5904 9.35265 24.9579 9.34686 24.9579 9.33818C24.9586 9.32866 25.0443 9.21036 25.1505 9.07208C25.2547 8.93034 25.3874 8.73944 25.4473 8.64399C25.5045 8.54853 25.6034 8.35184 25.6685 8.21011C25.731 8.06838 25.8142 7.85144 25.8507 7.73285C25.8871 7.61426 25.9366 7.41178 25.96 7.28451C25.986 7.15724 26.0095 6.87667 26.0173 6.66263C26.0251 6.43991 26.0199 6.16512 26.0016 6.02628C25.986 5.89033 25.9548 5.70232 25.9314 5.60687C25.9105 5.51142 25.8611 5.34944 25.8247 5.24531C25.7882 5.14118 25.7023 4.95316 25.6373 4.82589C25.5722 4.70152 25.4342 4.49904 25.3327 4.37756C25.2312 4.25896 25.0673 4.09988 24.9684 4.02757C24.8695 3.95236 24.7315 3.8598 24.6586 3.8222C24.5884 3.7817 24.4348 3.71518 24.3203 3.67468C24.2058 3.63419 24.0184 3.57923 23.9038 3.55609L23.8917 3.55335C23.8275 3.53892 23.7618 3.52552 23.7111 3.51517C23.6799 3.50882 23.6542 3.50358 23.6382 3.5L22.7977 3.50113C22.7818 3.50384 22.7396 3.51228 22.6837 3.52376C22.6046 3.53405 22.5313 3.54675 22.4593 3.56187C22.3084 3.59658 22.0403 3.67757 21.8607 3.74121C21.6811 3.80484 21.3766 3.94079 21.184 4.04781C20.9914 4.15194 20.7207 4.31681 20.5853 4.41516C20.45 4.51061 20.2027 4.70152 20.0388 4.83746C19.8748 4.97341 19.6041 5.21638 19.4401 5.37836C19.2762 5.54034 18.9821 5.85273 18.7895 6.07256C18.5969 6.29528 18.3106 6.64527 18.1544 6.85064C18.0062 7.05158 17.7708 7.37907 17.6236 7.5941L17.6078 7.61715C17.4621 7.8312 17.2695 8.12912 17.181 8.27664C17.0949 8.41728 17.0162 8.53603 17 8.54247C16.9838 8.53603 16.9051 8.41728 16.819 8.27664C16.7305 8.12912 16.5379 7.8312 16.3922 7.61715L16.3764 7.5941C16.2292 7.37907 15.9938 7.05158 15.8456 6.85064C15.6895 6.64527 15.4031 6.29528 15.2105 6.07256C15.0179 5.85273 14.7238 5.54034 14.5599 5.37836C14.3959 5.21638 14.1252 4.97341 13.9612 4.83746C13.7973 4.70152 13.55 4.51061 13.4147 4.41516C13.2793 4.31681 13.0086 4.15194 12.816 4.04781C12.6234 3.94079 12.3189 3.80484 12.1393 3.74121C11.9597 3.67757 11.6916 3.59658 11.5407 3.56187C11.4687 3.54675 11.3954 3.53405 11.3163 3.52376C11.2604 3.51228 11.2182 3.50384 11.2023 3.50113L10.3618 3.5C10.3458 3.50358 10.3201 3.50882 10.2889 3.51517ZM10.4866 5.15853C10.4007 5.17299 10.2784 5.19613 10.2133 5.21638C10.1482 5.23663 10.0415 5.28291 9.97123 5.32051C9.90356 5.35811 9.79424 5.45067 9.72918 5.52877C9.6589 5.60976 9.59123 5.72546 9.56 5.81513C9.53397 5.89901 9.49753 6.06388 9.48192 6.17669C9.4663 6.29239 9.45849 6.48619 9.4689 6.60478C9.47671 6.72337 9.50534 6.92006 9.53397 7.03865C9.56 7.15724 9.62246 7.34815 9.67452 7.45806C9.72397 7.56798 9.82288 7.74442 9.89055 7.84566C9.96082 7.94979 10.0936 8.10887 10.1873 8.20433C10.281 8.29689 10.4501 8.4444 10.5647 8.52829C10.6792 8.61506 10.8952 8.74812 11.0462 8.82621C11.1971 8.9072 11.4079 9.00266 11.5147 9.04315C11.6214 9.08365 11.8452 9.14728 12.0092 9.19067C12.1731 9.23116 12.4204 9.27744 12.5558 9.2948C12.7119 9.31504 13.3288 9.32372 14.2293 9.31794L15.6556 9.30926C15.4474 8.97373 15.299 8.74522 15.1897 8.58614C15.083 8.42705 14.8826 8.14648 14.7447 7.96425C14.6067 7.78202 14.3308 7.4436 14.1304 7.21509C13.93 6.98659 13.6541 6.69444 13.5188 6.56428C13.3834 6.43123 13.1778 6.24611 13.0633 6.15066C12.9488 6.0552 12.7562 5.90769 12.6338 5.8238C12.5115 5.73992 12.3137 5.61554 12.1914 5.54612C12.069 5.4796 11.8478 5.37836 11.6968 5.32051C11.5459 5.26266 11.3064 5.19903 11.1633 5.17299C11.0201 5.14985 10.8458 5.1325 10.7729 5.1325C10.7026 5.13539 10.5725 5.14696 10.4866 5.15853ZM23.5134 5.15853C23.5993 5.17299 23.7216 5.19613 23.7867 5.21638C23.8518 5.23663 23.9585 5.28291 24.0288 5.32051C24.0964 5.35811 24.2058 5.45067 24.2708 5.52877C24.3411 5.60976 24.4088 5.72546 24.44 5.81513C24.466 5.89901 24.5025 6.06388 24.5181 6.17669C24.5337 6.29239 24.5415 6.48619 24.5311 6.60478C24.5233 6.72337 24.4947 6.92006 24.466 7.03865C24.44 7.15724 24.3775 7.34815 24.3255 7.45806C24.276 7.56798 24.1771 7.74442 24.1095 7.84566C24.0392 7.94979 23.9064 8.10887 23.8127 8.20433C23.719 8.29689 23.5499 8.4444 23.4353 8.52829C23.3208 8.61506 23.1048 8.74812 22.9538 8.82621C22.8029 8.9072 22.5921 9.00266 22.4853 9.04315C22.3786 9.08365 22.1548 9.14728 21.9908 9.19067C21.8269 9.23116 21.5796 9.27744 21.4443 9.2948C21.2881 9.31504 20.6712 9.32372 19.7707 9.31794L18.3444 9.30926C18.5526 8.97373 18.701 8.74522 18.8103 8.58614C18.917 8.42705 19.1174 8.14648 19.2553 7.96425C19.3933 7.78202 19.6692 7.4436 19.8696 7.21509C20.07 6.98659 20.3459 6.69444 20.4812 6.56428C20.6166 6.43123 20.8222 6.24611 20.9367 6.15066C21.0512 6.0552 21.2438 5.90769 21.3662 5.8238C21.4885 5.73992 21.6863 5.61554 21.8086 5.54612C21.931 5.4796 22.1522 5.37836 22.3032 5.32051C22.4541 5.26266 22.6936 5.19903 22.8367 5.17299C22.9799 5.14985 23.1542 5.1325 23.2271 5.1325C23.2974 5.13539 23.4275 5.14696 23.5134 5.15853Z" fill="white" fill-opacity="0.5"/>
<path d="M27.145 26.253H25.6684L25.6584 26.8117L17.8029 26.8262L17.803 26.253H16.1969V26.8262L8.15927 26.8918L8.14921 26.333H6.67261C6.67822 27.0698 6.6879 27.1704 6.70432 27.2504C6.7261 27.3472 6.76813 27.4841 6.80112 27.5656L6.80844 27.5831C6.84227 27.6641 6.91775 27.8 6.97501 27.8868C7.03487 27.9765 7.14419 28.1037 7.21967 28.1703C7.29255 28.2397 7.41748 28.3293 7.49817 28.3727C7.57625 28.4132 7.71159 28.4711 7.79748 28.5L26.0202 28.42C26.1061 28.391 26.2414 28.3332 26.3195 28.2927C26.4002 28.2493 26.5251 28.1597 26.598 28.0902C26.6735 28.0237 26.7828 27.8964 26.8426 27.8068C26.8999 27.72 26.9754 27.584 27.0092 27.5031L27.0165 27.4855C27.0495 27.404 27.0916 27.2672 27.1133 27.1704C27.1298 27.0904 27.1394 26.9897 27.145 26.253Z" fill="white" fill-opacity="0.5"/>
</svg>
