<svg width="18" height="18" viewBox="0 0 18 18" fill="none" xmlns="http://www.w3.org/2000/svg">
<path fill-rule="evenodd" clip-rule="evenodd" d="M5.04222 5.04222C5.12747 4.95698 5.24308 4.90909 5.36364 4.90909H9.45455C9.5751 4.90909 9.69071 4.95698 9.77596 5.04222C9.8612 5.12747 9.90909 5.24308 9.90909 5.36364V5.81818C9.90909 6.06922 10.1126 6.27273 10.3636 6.27273C10.6147 6.27273 10.8182 6.06922 10.8182 5.81818V5.36364C10.8182 5.00198 10.6745 4.65513 10.4188 4.3994C10.1631 4.14367 9.8162 4 9.45455 4H5.36364C5.00198 4 4.65513 4.14367 4.3994 4.3994C4.14367 4.65513 4 5.00198 4 5.36364V9.45455C4 9.8162 4.14367 10.1631 4.3994 10.4188C4.65513 10.6745 5.00198 10.8182 5.36364 10.8182H5.81818C6.06922 10.8182 6.27273 10.6147 6.27273 10.3636C6.27273 10.1126 6.06922 9.90909 5.81818 9.90909H5.36364C5.24308 9.90909 5.12747 9.8612 5.04222 9.77596C4.95698 9.69071 4.90909 9.5751 4.90909 9.45455V5.36364C4.90909 5.24308 4.95698 5.12747 5.04222 5.04222ZM8.54545 7.18182C8.1838 7.18182 7.83695 7.32549 7.58122 7.58122C7.32549 7.83695 7.18182 8.1838 7.18182 8.54545V12.6364C7.18182 12.998 7.32549 13.3449 7.58122 13.6006C7.83695 13.8563 8.1838 14 8.54545 14H12.6364C12.998 14 13.3449 13.8563 13.6006 13.6006C13.8563 13.3449 14 12.998 14 12.6364V8.54545C14 8.1838 13.8563 7.83695 13.6006 7.58122C13.3449 7.32549 12.998 7.18182 12.6364 7.18182H8.54545ZM8.22404 8.22404C8.30929 8.1388 8.4249 8.09091 8.54545 8.09091H12.6364C12.7569 8.09091 12.8725 8.1388 12.9578 8.22404C13.043 8.30929 13.0909 8.4249 13.0909 8.54545V12.6364C13.0909 12.7569 13.043 12.8725 12.9578 12.9578C12.8725 13.043 12.7569 13.0909 12.6364 13.0909H8.54545C8.4249 13.0909 8.30929 13.043 8.22404 12.9578C8.1388 12.8725 8.09091 12.7569 8.09091 12.6364V8.54545C8.09091 8.4249 8.1388 8.30929 8.22404 8.22404Z" fill="white"/>
</svg>
