<svg width="18" height="18" viewBox="0 0 18 18" fill="none" xmlns="http://www.w3.org/2000/svg">
<path fill-rule="evenodd" clip-rule="evenodd" d="M4.06103 1L4.04113 2.03404L0 2.05431V2.60175C0 2.90182 0.0278698 3.35598 0.0597214 3.6074C0.0955539 3.85476 0.167219 4.29676 0.222959 4.58872C0.278698 4.88068 0.406103 5.36323 0.501657 5.66331C0.601192 5.96338 0.776375 6.40944 0.891835 6.6568C1.01128 6.90415 1.21831 7.27722 1.35766 7.48808C1.50497 7.71516 1.77969 8.04768 2.03052 8.30315C2.26144 8.53834 2.55606 8.80597 2.68745 8.89518C2.81884 8.98439 3.06966 9.13443 3.24485 9.22364C3.42003 9.31285 3.71465 9.44262 3.90178 9.5075C4.0889 9.57238 4.41936 9.66159 4.63834 9.70214C4.90509 9.7508 5.69456 9.77918 5.69456 9.77918C5.69456 9.77918 5.85387 9.9756 5.95336 10.1036C6.49718 10.8032 7.22093 11.8358 7.22093 11.8358V14.0804H4.87838V15.9457H3.88302V17H14.117V15.9457H13.1216V14.0804H10.7791V11.8358C10.7791 11.8358 11.5028 10.8032 12.0466 10.1036C12.1461 9.9756 12.3054 9.77918 12.3054 9.77918C12.3054 9.77918 13.0949 9.7508 13.3617 9.70214C13.5806 9.66159 13.9111 9.57238 14.0982 9.5075C14.2853 9.44262 14.58 9.31285 14.7552 9.22364C14.9303 9.13443 15.1812 8.98439 15.3126 8.89518C15.4439 8.80597 15.7386 8.53834 15.9695 8.30315C16.2203 8.04768 16.495 7.71516 16.6423 7.48808C16.7817 7.27722 16.9887 6.90415 17.1082 6.6568C17.2236 6.40944 17.3988 5.96338 17.4983 5.66331C17.5939 5.36323 17.7213 4.88068 17.777 4.58872C17.8328 4.29676 17.9044 3.85476 17.9403 3.6074C17.9721 3.35598 18 2.90182 18 2.60175V2.05431L13.9589 2.03404L13.939 1H4.06103ZM4.32381 4.89285C4.26807 4.59277 4.20436 4.14672 4.17649 3.89936C4.15261 3.65606 4.12075 3.44114 4.11279 3.42492C4.10483 3.40464 3.48771 3.39248 2.74319 3.39248C1.41738 3.39248 1.39349 3.39248 1.39349 3.47358C1.39349 3.51819 1.42534 3.76149 1.46914 4.0129C1.51293 4.26026 1.60849 4.68604 1.68413 4.95367C1.75978 5.22131 1.89117 5.60654 1.97876 5.80523C2.06237 6.00393 2.2057 6.29995 2.29329 6.45404C2.38486 6.60813 2.56801 6.87982 2.69939 7.05419C2.83476 7.2245 3.04578 7.45564 3.17318 7.56107C3.30059 7.6665 3.5116 7.82059 3.64299 7.89764C3.77437 7.97874 3.99733 8.08823 4.14066 8.14905C4.28001 8.20582 4.5189 8.28287 4.66621 8.31531C4.81352 8.35181 5.06435 8.39236 5.50628 8.44102L5.32314 8.07606C5.22361 7.87737 5.08027 7.55702 5.00463 7.36643C4.92898 7.17584 4.80954 6.84738 4.74584 6.63652C4.67815 6.42566 4.57862 6.06881 4.52288 5.84579C4.46714 5.62276 4.37955 5.19292 4.32381 4.89285ZM13.6762 4.89285C13.7319 4.59277 13.7956 4.14672 13.8235 3.89936C13.8474 3.65606 13.8792 3.44114 13.8872 3.42492C13.8952 3.40464 14.5123 3.39248 15.2568 3.39248C16.5826 3.39248 16.6065 3.39248 16.6065 3.47358C16.6065 3.51819 16.5747 3.76149 16.5309 4.0129C16.4871 4.26026 16.3915 4.68604 16.3159 4.95367C16.2402 5.22131 16.1088 5.60654 16.0212 5.80523C15.9376 6.00393 15.7943 6.29995 15.7067 6.45404C15.6151 6.60813 15.432 6.87982 15.3006 7.05419C15.1652 7.2245 14.9542 7.45564 14.8268 7.56107C14.6994 7.6665 14.4884 7.82059 14.357 7.89764C14.2256 7.97874 14.0027 8.08823 13.8593 8.14905C13.72 8.20582 13.4811 8.28287 13.3338 8.31531C13.1865 8.35181 12.9357 8.39236 12.4937 8.44102L12.6769 8.07606C12.7764 7.87737 12.9197 7.55702 12.9954 7.36643C13.071 7.17584 13.1905 6.84738 13.2542 6.63652C13.3218 6.42566 13.4214 6.06881 13.4771 5.84579C13.5329 5.62276 13.6205 5.19292 13.6762 4.89285Z" fill="#00AFFF"/>
</svg>
