<svg width="169" height="24" viewBox="0 0 169 24" fill="none" xmlns="http://www.w3.org/2000/svg">
<g clip-path="url(#clip0_6833_5731)">
<path d="M156.5 0.5H12.5C6.14873 0.5 1 5.64873 1 12C1 18.3513 6.14873 23.5 12.5 23.5H156.5C162.851 23.5 168 18.3513 168 12C168 5.64873 162.851 0.5 156.5 0.5Z" fill="black"/>
<path d="M156.5 0.5H12.5C6.14873 0.5 1 5.64873 1 12C1 18.3513 6.14873 23.5 12.5 23.5H156.5C162.851 23.5 168 18.3513 168 12C168 5.64873 162.851 0.5 156.5 0.5Z" stroke="url(#paint0_linear_6833_5731)"/>
<path d="M19.8151 10.5034C20.5157 11.0001 21.3739 11.2923 22.3009 11.2923V9.52338C22.1254 9.52342 21.9505 9.50526 21.7788 9.4692V10.8616C20.852 10.8616 19.9938 10.5694 19.2931 10.0728V13.6826C19.2931 15.4885 17.8169 16.9523 15.9961 16.9523C15.3167 16.9523 14.6852 16.7486 14.1606 16.3993C14.7594 17.0064 15.5943 17.383 16.518 17.383C18.3389 17.383 19.8152 15.9192 19.8152 14.1132L19.8151 10.5034ZM20.4591 8.7188C20.101 8.33089 19.8659 7.82959 19.8151 7.27536V7.04785H19.3204C19.4449 7.75225 19.8697 8.35404 20.4591 8.7188ZM15.3123 15.0135C15.1123 14.7534 15.0041 14.4352 15.0046 14.1081C15.0046 13.2821 15.6798 12.6125 16.5128 12.6125C16.6681 12.6124 16.8224 12.636 16.9703 12.6825V10.8741C16.7974 10.8506 16.6229 10.8406 16.4485 10.8443V12.2519C16.3005 12.2053 16.1461 12.1817 15.9908 12.1818C15.1578 12.1818 14.4827 12.8514 14.4827 13.6775C14.4827 14.2615 14.8201 14.7672 15.3123 15.0135Z" fill="#FF004F"/>
<path d="M19.2933 10.0727C19.994 10.5694 20.8521 10.8615 21.779 10.8615V9.46916C21.2616 9.35986 20.8036 9.09175 20.4593 8.7188C19.8698 8.354 19.4451 7.75221 19.3206 7.04785H18.0212V14.1132C18.0182 14.9368 17.3442 15.6038 16.513 15.6038C16.0232 15.6038 15.588 15.3722 15.3124 15.0135C14.8203 14.7672 14.4828 14.2615 14.4828 13.6775C14.4828 12.8515 15.158 12.1819 15.991 12.1819C16.1506 12.1819 16.3044 12.2065 16.4487 12.2519V10.8443C14.6598 10.881 13.2212 12.3305 13.2212 14.1132C13.2212 15.0031 13.5794 15.8099 14.1609 16.3993C14.6854 16.7486 15.3169 16.9524 15.9963 16.9524C17.8172 16.9524 19.2933 15.4885 19.2933 13.6826V10.0727Z" fill="white"/>
<path d="M21.7791 9.46885V9.09244C21.3125 9.09314 20.8551 8.96357 20.4593 8.71853C20.8097 9.09896 21.2711 9.36123 21.7791 9.46885ZM19.3206 7.04754C19.3087 6.98024 19.2996 6.91248 19.2933 6.84445V6.61694H17.4991V13.6823C17.4962 14.5059 16.8222 15.1728 15.991 15.1728C15.7553 15.1732 15.5229 15.1185 15.3124 15.0133C15.588 15.372 16.0232 15.6034 16.513 15.6034C17.3441 15.6034 18.0183 14.9366 18.0212 14.1129V7.04758L19.3206 7.04754ZM16.4488 10.844V10.4432C16.2989 10.4229 16.1477 10.4127 15.9964 10.4128C14.1754 10.4128 12.6992 11.8766 12.6992 13.6823C12.6992 14.8144 13.2794 15.8121 14.161 16.399C13.5795 15.8095 13.2213 15.0028 13.2213 14.1129C13.2213 12.3302 14.6599 10.8807 16.4488 10.844Z" fill="#00F7EF"/>
<path d="M31.3581 16.5H29.7201V8.604H26.8921V7.162H34.1861V8.604H31.3581V16.5ZM36.2602 8.91199C36.0175 8.91199 35.8028 8.82333 35.6162 8.646C35.4388 8.46867 35.3502 8.254 35.3502 8.002C35.3502 7.75 35.4388 7.53533 35.6162 7.358C35.8028 7.18067 36.0175 7.092 36.2602 7.092C36.5122 7.092 36.7268 7.18067 36.9042 7.358C37.0815 7.53533 37.1702 7.75 37.1702 8.002C37.1702 8.254 37.0815 8.46867 36.9042 8.646C36.7268 8.82333 36.5122 8.91199 36.2602 8.91199ZM37.0022 16.5H35.5322V9.738H37.0022V16.5ZM45.2371 16.5H43.3891L41.3171 13.714L40.3791 14.68V16.5H38.9091V7.162H40.3791V13L43.3611 9.738H45.1811L42.3671 12.804L45.2371 16.5ZM49.4186 16.5H47.7806V8.604H44.9526V7.162H52.2466V8.604H49.4186V16.5ZM55.1682 16.668C54.1228 16.668 53.2828 16.3273 52.6482 15.646C52.0135 14.9553 51.6962 14.1107 51.6962 13.112C51.6962 12.1133 52.0135 11.2733 52.6482 10.592C53.2828 9.91067 54.1228 9.56999 55.1682 9.56999C56.2228 9.56999 57.0675 9.91067 57.7022 10.592C58.3368 11.2733 58.6542 12.1133 58.6542 13.112C58.6542 14.12 58.3368 14.9647 57.7022 15.646C57.0675 16.3273 56.2228 16.668 55.1682 16.668ZM55.1682 15.366C55.7748 15.366 56.2508 15.1513 56.5962 14.722C56.9508 14.2833 57.1282 13.7467 57.1282 13.112C57.1282 12.4867 56.9508 11.9593 56.5962 11.53C56.2508 11.0913 55.7748 10.872 55.1682 10.872C54.5708 10.872 54.0948 11.0913 53.7402 11.53C53.3948 11.9593 53.2222 12.4867 53.2222 13.112C53.2222 13.7467 53.3948 14.2833 53.7402 14.722C54.0948 15.1513 54.5708 15.366 55.1682 15.366ZM66.4696 16.5H64.6216L62.5496 13.714L61.6116 14.68V16.5H60.1416V7.162H61.6116V13L64.5936 9.738H66.4136L63.5996 12.804L66.4696 16.5Z" fill="white"/>
<path d="M78.5 15H77.0432L75.5 12.7888L73.9444 15H72.5L74.6852 11.9193L72.6235 9H74.0802L75.5 11.0373L76.9074 9H78.3642L76.3025 11.9193L78.5 15Z" fill="white"/>
<path d="M96.7667 8.02441C96.8189 8.01398 96.8729 8.00442 96.8882 8.00182C96.9035 8.00008 96.9637 7.99921 97.0231 8.00095C97.1086 8.00269 97.1464 8.00877 97.2031 8.02615C97.2427 8.03832 97.2931 8.05918 97.3155 8.07308C97.338 8.08699 97.3722 8.11567 97.3911 8.13653C97.4109 8.15739 97.4361 8.19389 97.4478 8.21823C97.4586 8.24169 97.4748 8.29297 97.4838 8.33121C97.4955 8.38423 97.5 8.44072 97.5 8.57457C97.5 8.67017 97.4946 8.78577 97.4883 8.83096C97.482 8.87616 97.4694 8.97958 97.4595 9.06128C97.4496 9.14211 97.4379 9.24032 97.4325 9.27856C97.428 9.3168 97.4127 9.42457 97.4001 9.51757C97.3875 9.61057 97.3614 9.80003 97.3416 9.93909C97.3218 10.0782 97.3038 10.2007 97.302 10.2129C97.3003 10.225 97.2841 10.3285 97.2661 10.4432C97.2481 10.5579 97.2238 10.7161 97.2112 10.7952C97.1995 10.8743 97.1788 11.0012 97.1662 11.0776C97.1536 11.1541 97.1392 11.2402 97.1356 11.2689C97.1311 11.2975 97.1104 11.421 97.0906 11.5426C97.0699 11.6643 97.042 11.8347 97.0276 11.9207C97.0132 12.0067 96.9754 12.2318 96.943 12.4204C96.9106 12.609 96.863 12.8793 96.8387 13.0201C96.8135 13.1609 96.7667 13.4234 96.7343 13.6025C96.7028 13.7815 96.6659 13.9814 96.6542 14.0457C96.6416 14.11 96.6254 14.1961 96.6182 14.2369C96.611 14.2778 96.5903 14.389 96.5732 14.4846C96.5552 14.5802 96.5183 14.774 96.4914 14.9148C96.4644 15.0556 96.432 15.2103 96.4194 15.2581C96.4068 15.3059 96.3825 15.3859 96.3654 15.4363C96.3483 15.4867 96.3123 15.571 96.2853 15.6232C96.2583 15.6753 96.2088 15.7535 96.1746 15.797C96.1278 15.8561 96.0964 15.8865 96.0442 15.9204C96.0064 15.9456 95.9533 15.9726 95.9281 15.9812C95.8975 15.9899 95.8372 15.9969 95.7589 15.9986C95.6609 16.0021 95.6204 15.9995 95.5457 15.9847C95.4944 15.9743 95.4179 15.9543 95.3747 15.9387C95.3306 15.9239 95.2506 15.8891 95.1966 15.8622C95.1426 15.8352 95.0373 15.7753 94.9626 15.7283C94.8889 15.6814 94.7548 15.5927 94.6657 15.5319C94.5766 15.4711 94.2914 15.2851 94.0314 15.1173C93.7713 14.9505 93.3979 14.7071 93.2018 14.5776C93.0047 14.4472 92.8392 14.3412 92.8347 14.3412C92.8302 14.3412 92.8248 14.3377 92.8239 14.3343C92.8221 14.3299 92.6916 14.243 92.5332 14.1413C92.3749 14.0396 92.2129 13.9319 92.1733 13.9032C92.1337 13.8745 92.0753 13.8267 92.0438 13.798C92.0123 13.7693 91.9691 13.7241 91.9484 13.6981C91.9277 13.672 91.8998 13.6294 91.8863 13.6042C91.8737 13.5799 91.8566 13.5347 91.8485 13.5042C91.8386 13.4677 91.8359 13.4338 91.8395 13.3999C91.8422 13.373 91.8521 13.3295 91.8611 13.3043C91.8701 13.28 91.8935 13.2339 91.9124 13.2027C91.9322 13.1714 91.9709 13.1184 91.9988 13.0853C92.0276 13.0523 92.1203 12.9576 92.2066 12.8767C92.2921 12.795 92.4271 12.6681 92.5063 12.5943C92.5854 12.5195 92.7069 12.4083 92.7762 12.3466C92.8446 12.284 92.9318 12.2058 92.9696 12.1727C93.0065 12.1397 93.0938 12.0615 93.1631 11.9989C93.2324 11.9363 93.3232 11.8546 93.3655 11.8173C93.4078 11.779 93.4708 11.7217 93.505 11.6904C93.5392 11.6582 93.6427 11.5644 93.7344 11.4818C93.8262 11.3984 94.0341 11.2071 94.1978 11.055C94.3616 10.9038 94.5721 10.7048 94.6666 10.6118C94.7611 10.5188 94.87 10.4102 94.9087 10.3693C94.9473 10.3285 94.9968 10.272 95.0193 10.2433C95.0562 10.1946 95.0589 10.1877 95.0553 10.1477C95.0526 10.1233 95.0436 10.0895 95.0337 10.0712C95.0223 10.0486 95.0046 10.0318 94.9806 10.0208C94.9608 10.0121 94.9302 10.0043 94.9131 10.0043C94.8961 10.0043 94.8637 10.0086 94.8412 10.0138C94.8187 10.0191 94.7557 10.0477 94.7017 10.079C94.6477 10.1103 94.5514 10.1677 94.4885 10.2068C94.4255 10.2459 94.3418 10.2972 94.304 10.3206C94.2653 10.3441 93.8919 10.584 93.4735 10.8525C93.0551 11.122 92.5755 11.4314 92.4073 11.5418C92.239 11.6513 91.9844 11.8173 91.8404 11.9111C91.6965 12.0041 91.4076 12.1927 91.1971 12.3292C90.9865 12.4665 90.7661 12.6047 90.7067 12.6369C90.6473 12.669 90.5564 12.7133 90.5043 12.7359C90.4521 12.7577 90.3693 12.7872 90.3198 12.802C90.2703 12.8168 90.1911 12.835 90.1443 12.8428C90.0778 12.8541 90.0256 12.8559 89.9104 12.8524C89.8285 12.8489 89.7278 12.8411 89.6855 12.8333C89.6432 12.8263 89.5892 12.8168 89.564 12.8115C89.5397 12.8072 89.5091 12.802 89.4965 12.7994C89.4839 12.7976 89.456 12.7916 89.4335 12.7863C89.411 12.7811 89.3121 12.7568 89.2131 12.7325C89.1141 12.7081 88.9584 12.6664 88.8667 12.6403C88.7749 12.6143 88.5724 12.5543 88.4168 12.5074C88.2611 12.4596 88.0866 12.4057 88.0299 12.3874C87.9732 12.3683 87.8895 12.3387 87.8454 12.3205C87.8013 12.3031 87.7366 12.2727 87.7015 12.2527C87.6664 12.2336 87.6205 12.2006 87.598 12.1806C87.5755 12.1606 87.5458 12.1232 87.5314 12.098C87.5134 12.0658 87.5035 12.0346 87.5008 11.9989C87.4981 11.9589 87.5017 11.9346 87.5179 11.8946C87.5323 11.8573 87.5548 11.826 87.5971 11.7825C87.6304 11.7503 87.6907 11.7008 87.733 11.6739C87.7752 11.6469 87.8436 11.6061 87.8859 11.5843C87.9282 11.5617 87.9993 11.5287 88.0434 11.5096C88.0875 11.4905 88.63 11.2628 89.2491 11.0038C89.8672 10.7448 90.6311 10.4249 90.9451 10.2937C91.2592 10.1616 91.9052 9.89303 92.3803 9.69574C92.8554 9.49932 93.5068 9.23163 93.8289 9.10213C94.1501 8.9735 94.5397 8.81792 94.6927 8.75709C94.8457 8.69625 95.1219 8.58934 95.3046 8.51808C95.4872 8.44768 95.7301 8.35555 95.8444 8.31383C95.9587 8.27211 96.1386 8.20867 96.2448 8.17303C96.351 8.1374 96.4905 8.09307 96.5552 8.07482C96.62 8.05657 96.7145 8.03397 96.7667 8.02441Z" fill="white"/>
<path d="M106.538 16.5H104.781V8.12598H101.828V6.63574H109.484V8.12598H106.538V16.5ZM111.952 10.4229C110.995 10.4229 110.305 11.1543 110.236 12.166H113.62C113.586 11.1406 112.93 10.4229 111.952 10.4229ZM113.627 14.333H115.22C115.001 15.7002 113.729 16.6436 112.014 16.6436C109.84 16.6436 108.527 15.2148 108.527 12.9043C108.527 10.6143 109.854 9.10352 111.945 9.10352C114.003 9.10352 115.288 10.5322 115.288 12.7334V13.2871H110.223V13.3896C110.223 14.5518 110.934 15.3311 112.048 15.3311C112.841 15.3311 113.442 14.9346 113.627 14.333ZM116.437 16.5V6.63574H118.139V16.5H116.437ZM122.712 10.4229C121.755 10.4229 121.064 11.1543 120.996 12.166H124.38C124.346 11.1406 123.689 10.4229 122.712 10.4229ZM124.387 14.333H125.979C125.761 15.7002 124.489 16.6436 122.773 16.6436C120.6 16.6436 119.287 15.2148 119.287 12.9043C119.287 10.6143 120.613 9.10352 122.705 9.10352C124.763 9.10352 126.048 10.5322 126.048 12.7334V13.2871H120.982V13.3896C120.982 14.5518 121.693 15.3311 122.808 15.3311C123.601 15.3311 124.202 14.9346 124.387 14.333ZM130.348 15.1533C131.435 15.1533 132.139 14.2715 132.139 12.8564C132.139 11.4482 131.435 10.5322 130.348 10.5322C129.274 10.5322 128.591 11.4346 128.591 12.8564C128.591 14.292 129.274 15.1533 130.348 15.1533ZM130.341 19.2344C128.55 19.2344 127.265 18.3184 127.094 17.0469H128.782C128.967 17.6006 129.589 17.9766 130.396 17.9766C131.503 17.9766 132.139 17.3545 132.139 16.4316V15.208H132.098C131.722 15.9873 130.867 16.5068 129.828 16.5068C128.037 16.5068 126.848 15.1055 126.848 12.8496C126.848 10.5596 128.01 9.13086 129.862 9.13086C130.895 9.13086 131.729 9.66406 132.146 10.498H132.173V9.25391H133.841V16.3838C133.841 18.1133 132.453 19.2344 130.341 19.2344ZM135.229 16.5V9.25391H136.862V10.5186H136.896C137.143 9.63672 137.778 9.13086 138.633 9.13086C138.852 9.13086 139.043 9.17188 139.166 9.19922V10.7373C139.022 10.6826 138.763 10.6416 138.476 10.6416C137.512 10.6416 136.931 11.2637 136.931 12.2822V16.5H135.229ZM142.522 15.3311C143.486 15.3311 144.259 14.6885 144.259 13.8135V13.2598L142.584 13.3623C141.764 13.417 141.292 13.7861 141.292 14.3604C141.292 14.9551 141.784 15.3311 142.522 15.3311ZM142.01 16.6162C140.608 16.6162 139.59 15.7344 139.59 14.4287C139.59 13.1436 140.581 12.3711 142.345 12.2617L144.259 12.1523V11.6328C144.259 10.874 143.746 10.4365 142.905 10.4365C142.099 10.4365 141.586 10.8262 141.477 11.4277H139.897C139.973 10.0742 141.128 9.10352 142.974 9.10352C144.771 9.10352 145.94 10.0537 145.94 11.5098V16.5H144.3V15.3447H144.266C143.849 16.1309 142.939 16.6162 142.01 16.6162ZM147.314 16.5V9.25391H148.948V10.5117H148.982C149.297 9.6709 150.062 9.11719 151.047 9.11719C152.072 9.11719 152.804 9.64355 153.07 10.5732H153.111C153.46 9.67773 154.321 9.11719 155.367 9.11719C156.796 9.11719 157.732 10.0811 157.732 11.5303V16.5H156.03V11.9473C156.03 11.0586 155.565 10.5527 154.731 10.5527C153.911 10.5527 153.351 11.1543 153.351 12.0225V16.5H151.696V11.8584C151.696 11.0518 151.204 10.5527 150.411 10.5527C149.591 10.5527 149.017 11.1885 149.017 12.0635V16.5H147.314Z" fill="white"/>
</g>
<defs>
<linearGradient id="paint0_linear_6833_5731" x1="84.5" y1="-2.52672e-08" x2="84.5" y2="24" gradientUnits="userSpaceOnUse">
<stop stop-color="#F0014A"/>
<stop offset="1" stop-color="#00E4DD"/>
</linearGradient>
<clipPath id="clip0_6833_5731">
<rect width="169" height="24" fill="white"/>
</clipPath>
</defs>
</svg>
