<svg width="64" height="62" viewBox="0 0 64 62" fill="none" xmlns="http://www.w3.org/2000/svg">
<path fill-rule="evenodd" clip-rule="evenodd" d="M32.0238 18.4062C32.0238 22.8556 28.4169 26.4625 23.9676 26.4625C19.5182 26.4625 15.9113 22.8556 15.9113 18.4062C15.9113 13.9569 19.5182 10.35 23.9676 10.35C28.4169 10.35 32.0238 13.9569 32.0238 18.4062ZM34.6238 18.4062C34.6238 24.2915 29.8529 29.0625 23.9676 29.0625C18.0823 29.0625 13.3113 24.2915 13.3113 18.4062C13.3113 12.521 18.0823 7.75 23.9676 7.75C29.8529 7.75 34.6238 12.521 34.6238 18.4062ZM50.7124 25.1875C50.7124 28.0318 48.4067 30.3375 45.5624 30.3375C42.7181 30.3375 40.4124 28.0318 40.4124 25.1875C40.4124 22.3432 42.7181 20.0375 45.5624 20.0375C48.4067 20.0375 50.7124 22.3432 50.7124 25.1875ZM53.3124 25.1875C53.3124 29.4677 49.8426 32.9375 45.5624 32.9375C41.2822 32.9375 37.8124 29.4677 37.8124 25.1875C37.8124 20.9073 41.2822 17.4375 45.5624 17.4375C49.8426 17.4375 53.3124 20.9073 53.3124 25.1875ZM12.896 40.7306C10.0479 43.2156 8.4124 46.421 8.4124 49.4708C8.4124 50.3545 7.69606 51.0708 6.8124 51.0708C5.92875 51.0708 5.2124 50.3545 5.2124 49.4708C5.2124 45.2873 7.42259 41.2594 10.7922 38.3194C14.1772 35.3658 18.8412 33.4042 23.9916 33.4042C29.1419 33.4042 33.8059 35.3658 37.191 38.3194C40.5605 41.2594 42.7707 45.2873 42.7707 49.4708C42.7707 50.3545 42.0544 51.0708 41.1707 51.0708C40.2871 51.0708 39.5707 50.3545 39.5707 49.4708C39.5707 46.421 37.9352 43.2156 35.0872 40.7306C32.2546 38.2591 28.329 36.6042 23.9916 36.6042C19.6541 36.6042 15.7285 38.2591 12.896 40.7306ZM45.053 40.4205C45.8327 40.2892 46.6475 40.2208 47.4883 40.2208C52.6865 40.2208 56.4077 44.1099 55.7748 49.2763C55.6673 50.1534 56.2912 50.9515 57.1683 51.059C58.0454 51.1664 58.8436 50.5425 58.951 49.6654C59.8373 42.4318 54.4435 37.0208 47.4883 37.0208C46.4743 37.0208 45.4816 37.1033 44.5218 37.2649C43.6504 37.4116 43.0629 38.2369 43.2096 39.1083C43.3563 39.9797 44.1816 40.5672 45.053 40.4205Z" fill="#878787"/>
</svg>
