<svg width="16" height="16" viewBox="0 0 16 16" fill="none" xmlns="http://www.w3.org/2000/svg">
<g clip-path="url(#clip0_6833_5797)">
<path d="M0.793147 6.18099C0.740359 6.42293 0.678773 6.78804 0.661177 6.99479C0.639182 7.20153 0.621586 7.44788 0.617188 7.54465C0.617188 7.64143 0.634783 7.94495 0.656778 8.21768C0.683172 8.48602 0.731562 8.86432 0.771152 9.05348C0.810743 9.23823 0.898723 9.58135 0.973507 9.81009C1.04829 10.0389 1.18466 10.3951 1.28144 10.6019C1.37821 10.8087 1.52778 11.0946 1.61576 11.2397C1.69934 11.3849 1.8797 11.6533 2.01167 11.8336C2.14804 12.0139 2.41638 12.3307 2.60994 12.533C2.80789 12.7354 3.12462 13.0213 3.31817 13.1753C3.51173 13.3248 3.81086 13.5359 3.97802 13.6372C4.14958 13.7428 4.46631 13.9099 4.68186 14.0111C4.90181 14.1166 5.26692 14.2573 5.49567 14.3322C5.72442 14.407 6.06314 14.4949 6.24351 14.5346C6.42386 14.5697 6.81098 14.6225 7.10131 14.6533C7.48842 14.6885 7.77435 14.6885 8.17027 14.6533C8.465 14.6269 8.90049 14.5609 9.13805 14.5125C9.37119 14.4598 9.7627 14.3498 10.0047 14.2662C10.2466 14.1826 10.6601 14.0023 10.9197 13.8658C11.1836 13.7295 11.6015 13.4656 11.8435 13.2808C12.0897 13.0961 12.4812 12.7485 12.71 12.5067C12.9387 12.2647 13.2467 11.8995 13.3918 11.6972C13.5371 11.4949 13.7702 11.099 13.9109 10.8219C14.0517 10.5448 14.2321 10.1092 14.3157 9.85408C14.3949 9.59894 14.4916 9.24263 14.5312 9.06227C14.5708 8.88192 14.6236 8.48602 14.65 8.18249C14.6896 7.76899 14.6896 7.50066 14.65 7.10476C14.6236 6.81443 14.562 6.39654 14.5181 6.18099C14.4696 5.96544 14.3817 5.62673 14.3157 5.43317C14.2541 5.23963 14.1001 4.87451 13.9813 4.61938C13.8582 4.36423 13.6294 3.95953 13.4711 3.71759C13.2687 3.41407 13.0003 3.09735 12.6044 2.70145C12.2085 2.30555 11.8918 2.03721 11.5883 1.83486C11.3463 1.6765 10.9416 1.44776 10.6865 1.32459C10.4313 1.20582 10.0662 1.05186 9.87268 0.99027C9.67913 0.924287 9.3536 0.831909 9.14684 0.78792C8.94009 0.743931 8.50459 0.682346 8.17906 0.651554C7.5896 0.598767 7.5852 0.598767 7.36525 0.708739C7.19369 0.792318 7.12331 0.858303 7.04412 1.01226C6.99133 1.12224 6.94735 1.2586 6.94735 1.32019C6.94735 1.38177 6.99133 1.51814 7.04412 1.62811C7.10571 1.74688 7.20688 1.85685 7.29926 1.90964C7.41804 1.98002 7.58081 2.00642 8.0031 2.03281C8.32863 2.05041 8.72455 2.1076 8.97088 2.16918C9.19963 2.23077 9.56915 2.34954 9.7847 2.43751C10.0047 2.52549 10.3346 2.69265 10.5282 2.80702C10.7172 2.92139 11.034 3.14574 11.2319 3.3041C11.4255 3.46246 11.7291 3.75279 11.8962 3.95074C12.0678 4.14429 12.3141 4.48301 12.4461 4.69416C12.5781 4.9053 12.7628 5.27041 12.8596 5.49915C12.952 5.7279 13.0796 6.1062 13.1367 6.33495C13.2159 6.63407 13.2511 6.9288 13.2687 7.3687C13.2863 7.76459 13.2775 8.13411 13.2379 8.40244C13.2072 8.63118 13.1367 8.9875 13.0752 9.19424C13.018 9.40099 12.908 9.70452 12.8376 9.87603C12.7628 10.0476 12.6265 10.3204 12.5253 10.492C12.4241 10.6634 12.2217 10.9582 12.0722 11.1518C11.9226 11.3453 11.6894 11.6049 11.5619 11.728C11.4299 11.8512 11.166 12.0667 10.9724 12.2119C10.7788 12.3526 10.4622 12.555 10.2686 12.6562C10.0751 12.7573 9.70991 12.9113 9.45477 12.9949C9.19963 13.0784 8.81692 13.1797 8.59697 13.2193C8.38142 13.2544 7.95472 13.2853 7.65118 13.2853C7.34765 13.2853 6.92535 13.2544 6.7054 13.2193C6.48985 13.1797 6.11154 13.0828 5.86959 13.0037C5.62765 12.9201 5.30212 12.7926 5.14376 12.7134C4.98539 12.6342 4.69066 12.4583 4.48391 12.3219C4.27715 12.1855 3.91204 11.8776 3.67009 11.6356C3.42374 11.3893 3.11582 11.0286 2.97945 10.8219C2.84308 10.6151 2.67152 10.3204 2.59234 10.162C2.51316 10.0036 2.38558 9.67813 2.30201 9.43618C2.22282 9.19424 2.12164 8.80714 2.08205 8.57839C2.02927 8.25728 2.01607 7.99334 2.03367 7.45667C2.05126 6.90241 2.07765 6.66487 2.16564 6.33495C2.22282 6.1062 2.34599 5.7367 2.43398 5.52115C2.52195 5.30561 2.68471 4.97568 2.79029 4.79533C2.90027 4.61498 3.08502 4.34664 3.40175 3.93754L3.45014 4.17948C3.47653 4.31145 3.52493 4.46541 3.56012 4.5226C3.59531 4.57978 3.69649 4.66776 3.78007 4.72055C3.87685 4.77774 4.00441 4.81292 4.13199 4.81292C4.25516 4.81292 4.38713 4.77774 4.48391 4.72055C4.56748 4.66776 4.67746 4.55779 4.72586 4.47861C4.80943 4.34224 4.81383 4.25427 4.81383 3.07976C4.81383 1.90525 4.80943 1.81726 4.72586 1.6809C4.67746 1.60172 4.56748 1.49174 4.48391 1.43896C4.33434 1.34658 4.29035 1.34218 3.07623 1.34218C1.8621 1.34218 1.81812 1.34658 1.66855 1.43896C1.58497 1.49174 1.47499 1.60172 1.431 1.6809C1.37821 1.76448 1.34302 1.90964 1.34302 2.02402C1.34302 2.15158 1.37821 2.27915 1.4354 2.37593C1.48819 2.45951 1.59817 2.56948 1.67735 2.61787C1.78292 2.67945 1.93689 2.71025 2.62753 2.74983L2.44277 2.94778C2.3416 3.05776 2.14804 3.2953 2.01607 3.47565C1.8841 3.65601 1.69934 3.92434 1.61576 4.06951C1.52778 4.21468 1.38701 4.48301 1.30343 4.66336C1.21985 4.84372 1.09228 5.16044 1.0175 5.36719C0.947112 5.57394 0.841536 5.93905 0.793147 6.18099Z" fill="white"/>
</g>
<defs>
<clipPath id="clip0_6833_5797">
<rect width="15" height="15" fill="white" transform="translate(0.5 0.5)"/>
</clipPath>
</defs>
</svg>
