<svg width="52" height="46" viewBox="0 0 52 46" fill="none" xmlns="http://www.w3.org/2000/svg">
<g clip-path="url(#clip0_6815_406)">
<mask id="mask0_6815_406" style="mask-type:luminance" maskUnits="userSpaceOnUse" x="0" y="0" width="52" height="46">
<path d="M52 0H0V46H52V0Z" fill="white"/>
</mask>
<g mask="url(#mask0_6815_406)">
<path d="M41.9999 8.32965V26.3334H35.9995V8.32965H41.9999Z" fill="white"/>
<path d="M32.6677 11.6648C32.6677 11.6648 32.6668 8.32965 29.3332 8.32965H16.6681C15.3343 8.32965 14.1173 9.03952 13.3336 10.9969L10.4628 19.6103C10.1655 20.2983 10 20.9376 10 21.6718V25.0002C10 25.0002 10 27.6675 12.6667 27.6675H22.0007L20.6669 32.3358C20.0001 34.3352 20.0001 35.003 21.3338 36.3363L22.6668 37.6703L32.0008 28.3353C32.0008 28.3353 32.6677 27.6683 32.6677 26.3343V11.6648Z" fill="white"/>
<path d="M41.9999 8.32965V26.3334H35.9995V8.32965H41.9999Z" stroke="white" stroke-linecap="round" stroke-linejoin="round"/>
<path d="M32.6677 11.6648C32.6677 11.6648 32.6668 8.32965 29.3332 8.32965H16.6681C15.3343 8.32965 14.1173 9.03952 13.3336 10.9969L10.4628 19.6103C10.1655 20.2983 10 20.9376 10 21.6718V25.0002C10 25.0002 10 27.6675 12.6667 27.6675H22.0007L20.6669 32.3358C20.0001 34.3352 20.0001 35.003 21.3338 36.3363L22.6668 37.6703L32.0008 28.3353C32.0008 28.3353 32.6677 27.6683 32.6677 26.3343V11.6648Z" stroke="white" stroke-linecap="round" stroke-linejoin="round"/>
</g>
</g>
<defs>
<clipPath id="clip0_6815_406">
<rect width="52" height="46" fill="white"/>
</clipPath>
</defs>
</svg>
