<svg width="26" height="24" viewBox="0 0 26 24" fill="none" xmlns="http://www.w3.org/2000/svg">
<g clip-path="url(#clip0_6815_320)">
<path d="M4.66831 19.3215C4.00866 19.3215 3.39129 19.208 2.81621 18.9812C2.24959 18.7456 1.75485 18.4227 1.33199 18.0126C0.917594 17.5938 0.591996 17.0964 0.355198 16.5205C0.118399 15.9446 0 15.312 0 14.6227C0 13.9857 0.101485 13.3836 0.304455 12.8164C0.515882 12.2492 0.820338 11.7519 1.21782 11.3243C1.6153 10.888 2.09736 10.5434 2.66398 10.2903C3.23061 10.0373 3.87758 9.91074 4.60489 9.91074C4.93471 9.91074 5.27722 9.94128 5.63242 10.0024C5.99608 10.0547 6.34705 10.1463 6.68533 10.2772C7.03207 10.3994 7.35767 10.5652 7.66212 10.7746C7.97504 10.9753 8.24566 11.224 8.474 11.5206L7.40841 12.7117C7.05321 12.3103 6.63036 12.0006 6.13985 11.7824C5.65779 11.5643 5.17574 11.4552 4.69369 11.4552C4.26237 11.4552 3.86912 11.5337 3.51392 11.6908C3.15872 11.8479 2.85004 12.0704 2.58787 12.3583C2.33416 12.6375 2.13542 12.9735 1.99164 13.3661C1.84787 13.7501 1.77599 14.1733 1.77599 14.6357C1.77599 15.1157 1.8521 15.5519 2.00433 15.9446C2.15656 16.3285 2.36799 16.6558 2.63861 16.9263C2.90924 17.1968 3.22638 17.4062 3.59003 17.5545C3.96215 17.7028 4.35963 17.777 4.78248 17.777C5.05311 17.777 5.32374 17.7465 5.59437 17.6854C5.87345 17.6156 6.13139 17.5022 6.36819 17.3451C6.60499 17.188 6.81219 16.9786 6.98978 16.7168C7.17584 16.4463 7.31538 16.106 7.40841 15.6959H4.42729V14.1776H9.15903C9.15903 15.1811 9.01949 16.0144 8.7404 16.6776C8.46132 17.3407 8.10612 17.8686 7.67481 18.2613C7.2435 18.654 6.76144 18.9288 6.22865 19.0859C5.69585 19.2429 5.17574 19.3215 4.66831 19.3215Z" fill="white"/>
<path d="M12.3793 19.2037H10.6794V10.0416H12.3793V19.2037Z" fill="white"/>
<path d="M14.458 10.0416H19.2151V11.5468H16.1578V13.8897H18.9614V15.408H16.1578V19.2037H14.458V10.0416Z" fill="white"/>
<path d="M22.1942 11.5468H20.063V10.0416H25.9999V11.5468H23.8941V19.2037H22.1942V11.5468Z" fill="white"/>
<path fill-rule="evenodd" clip-rule="evenodd" d="M6.85144 0.514002C6.80498 0.523553 6.7448 0.535922 6.68591 0.549243L6.67483 0.551767C6.5699 0.573124 6.39821 0.623847 6.29329 0.661222C6.18837 0.698597 6.04768 0.759999 5.9833 0.797374C5.91653 0.832079 5.79015 0.917508 5.69953 0.986918C5.60892 1.05366 5.45869 1.20049 5.36569 1.30994C5.27269 1.42207 5.14631 1.60894 5.08669 1.72374C5.02708 1.8412 4.94839 2.01473 4.915 2.11084C4.88162 2.20694 4.83631 2.35644 4.81723 2.44454C4.79577 2.53264 4.76716 2.70617 4.75285 2.83164C4.73616 2.95978 4.73139 3.2134 4.73854 3.41896C4.7457 3.61651 4.76716 3.87547 4.791 3.99293C4.81247 4.1104 4.85777 4.29727 4.89116 4.40673C4.92454 4.51618 5.00085 4.71641 5.05808 4.84722C5.11769 4.97803 5.20831 5.15957 5.26077 5.24767C5.31561 5.33576 5.43723 5.51196 5.53261 5.64277C5.62998 5.7704 5.70844 5.87949 5.70907 5.88828C5.70907 5.89629 5.12962 5.90173 3.13372 5.90173C3.10185 5.91302 3.07171 5.92399 3.04318 5.93464L2.95011 5.96847C2.84757 6.00317 2.69972 6.07792 2.62103 6.13666C2.54234 6.19272 2.42073 6.31018 2.34919 6.39828C2.28004 6.48371 2.19419 6.61719 2.16081 6.68927C2.12742 6.76135 2.07973 6.88949 2.05112 6.96958C2.03791 7.0076 2.02819 7.038 2.02094 7.1065C2.01352 7.13851 2.00796 7.16628 2.00581 7.18315L2 8.8651H3.35283L3.34833 7.42342H12.2667V8.8651H13.7333V7.42342H22.6517L22.6472 8.8651H24L23.9942 7.18315C23.992 7.16628 23.9865 7.13851 23.9791 7.1065C23.9718 7.038 23.9621 7.0076 23.9489 6.96958C23.9203 6.88949 23.8726 6.76135 23.8392 6.68927C23.8058 6.61719 23.72 6.48371 23.6508 6.39828C23.5793 6.31018 23.4577 6.19272 23.379 6.13666C23.3003 6.07792 23.1524 6.00317 23.0499 5.96847L22.9568 5.93464C22.9283 5.92399 22.8981 5.91302 22.8663 5.90173C20.8704 5.90173 20.2909 5.89639 20.2909 5.88838C20.2916 5.87959 20.37 5.7704 20.4674 5.64277C20.5628 5.51196 20.6844 5.33576 20.7392 5.24767C20.7917 5.15957 20.8823 4.97803 20.9419 4.84722C20.9992 4.71641 21.0755 4.51618 21.1088 4.40673C21.1422 4.29727 21.1875 4.1104 21.209 3.99293C21.2328 3.87547 21.2543 3.61651 21.2615 3.41896C21.2686 3.2134 21.2638 2.95978 21.2472 2.83164C21.2328 2.70617 21.2042 2.53264 21.1828 2.44454C21.1637 2.35644 21.1184 2.20694 21.085 2.11084C21.0516 2.01473 20.9729 1.8412 20.9133 1.72374C20.8537 1.60894 20.7273 1.42207 20.6343 1.30994C20.5413 1.20049 20.3911 1.05366 20.3005 0.986918C20.2099 0.917508 20.0835 0.832079 20.0167 0.797374C19.9523 0.759999 19.8116 0.698597 19.7067 0.661222C19.6018 0.623847 19.4301 0.573124 19.3252 0.551767L19.3141 0.549243C19.2552 0.535922 19.195 0.523553 19.1486 0.514002C19.12 0.508141 19.0965 0.5033 19.0818 0.5L18.3117 0.501044C18.2972 0.503548 18.2585 0.511337 18.2073 0.521932C18.1349 0.531422 18.0676 0.543147 18.0017 0.557106C17.8634 0.589142 17.6178 0.663892 17.4533 0.722624C17.2887 0.781356 17.0097 0.906829 16.8333 1.00561C16.6568 1.10171 16.4088 1.25388 16.2848 1.34465C16.1608 1.43275 15.9343 1.60894 15.7841 1.73442C15.6338 1.85989 15.3858 2.08414 15.2356 2.23364C15.0854 2.38314 14.8159 2.67146 14.6395 2.87435C14.463 3.07992 14.2007 3.40294 14.0576 3.59249C13.9219 3.77794 13.7062 4.08021 13.5713 4.27867L13.5569 4.29994C13.4233 4.4975 13.2469 4.77247 13.1658 4.90862C13.087 5.03842 13.0149 5.14803 13 5.15397C12.9851 5.14803 12.913 5.03842 12.8342 4.90862C12.7531 4.77247 12.5767 4.4975 12.4431 4.29994L12.4287 4.27867C12.2938 4.08021 12.0781 3.77794 11.9424 3.59249C11.7993 3.40294 11.537 3.07992 11.3605 2.87435C11.1841 2.67146 10.9146 2.38314 10.7644 2.23364C10.6142 2.08414 10.3662 1.85989 10.2159 1.73442C10.0657 1.60894 9.83917 1.43275 9.71517 1.34465C9.59117 1.25388 9.34317 1.10171 9.16672 1.00561C8.99026 0.906829 8.71126 0.781356 8.54672 0.722624C8.38219 0.663892 8.13657 0.589142 7.99827 0.557106C7.93236 0.543147 7.86513 0.531422 7.79271 0.521932C7.74148 0.511337 7.70281 0.503548 7.68827 0.501044L6.91818 0.5C6.9035 0.503302 6.87997 0.508137 6.85144 0.514002ZM7.03251 2.03075C6.95382 2.0441 6.84175 2.06545 6.78213 2.08414C6.72252 2.10283 6.62475 2.14554 6.56037 2.18025C6.49837 2.21495 6.39821 2.30038 6.3386 2.37246C6.27422 2.44721 6.21222 2.554 6.1836 2.63676C6.15975 2.71418 6.12637 2.86635 6.11206 2.97046C6.09776 3.07725 6.0906 3.25611 6.10014 3.36557C6.10729 3.47502 6.13353 3.65656 6.15976 3.76601C6.1836 3.87547 6.24083 4.05167 6.28852 4.15311C6.33383 4.25456 6.42444 4.41741 6.48644 4.51084C6.55083 4.60695 6.67244 4.75378 6.75829 4.84188C6.84413 4.92731 6.99913 5.06346 7.10405 5.14088C7.20897 5.22097 7.40689 5.34377 7.5452 5.41585C7.68351 5.4906 7.87666 5.5787 7.97442 5.61608C8.07219 5.65345 8.27727 5.71218 8.4275 5.75223C8.57772 5.7896 8.80426 5.83232 8.92826 5.84833C9.07133 5.86702 9.63648 5.87503 10.4615 5.86969L11.7683 5.86168C11.5775 5.552 11.4416 5.3411 11.3415 5.19427C11.2437 5.04744 11.0601 4.78849 10.9337 4.6203C10.8073 4.45211 10.5545 4.13976 10.3709 3.92886C10.1873 3.71796 9.93455 3.44833 9.81055 3.32819C9.68656 3.20539 9.49817 3.03453 9.39325 2.94643C9.28833 2.85834 9.11187 2.72219 8.99979 2.64477C8.88772 2.56735 8.70649 2.45255 8.59442 2.38848C8.48234 2.32708 8.27965 2.23364 8.14135 2.18025C8.00304 2.12685 7.78366 2.06812 7.65251 2.0441C7.52135 2.02274 7.36159 2.00672 7.29482 2.00672C7.23043 2.00939 7.1112 2.02007 7.03251 2.03075ZM18.9675 2.03075C19.0462 2.0441 19.1583 2.06545 19.2179 2.08414C19.2775 2.10283 19.3753 2.14554 19.4396 2.18025C19.5016 2.21495 19.6018 2.30038 19.6614 2.37246C19.7258 2.44721 19.7878 2.554 19.8164 2.63676C19.8402 2.71418 19.8736 2.86635 19.8879 2.97046C19.9022 3.07725 19.9094 3.25611 19.8999 3.36557C19.8927 3.47502 19.8665 3.65656 19.8402 3.76601C19.8164 3.87547 19.7592 4.05167 19.7115 4.15311C19.6662 4.25456 19.5756 4.41741 19.5136 4.51084C19.4492 4.60695 19.3276 4.75378 19.2417 4.84188C19.1559 4.92731 19.0009 5.06346 18.8959 5.14088C18.791 5.22097 18.5931 5.34377 18.4548 5.41585C18.3165 5.4906 18.1233 5.5787 18.0256 5.61608C17.9278 5.65345 17.7227 5.71218 17.5725 5.75223C17.4223 5.7896 17.1957 5.83232 17.0717 5.84833C16.9287 5.86702 16.3635 5.87503 15.5385 5.86969L14.2317 5.86168C14.4225 5.552 14.5584 5.3411 14.6585 5.19427C14.7563 5.04744 14.9399 4.78849 15.0663 4.6203C15.1927 4.45211 15.4455 4.13976 15.6291 3.92886C15.8127 3.71796 16.0654 3.44833 16.1894 3.32819C16.3134 3.20539 16.5018 3.03453 16.6067 2.94643C16.7117 2.85834 16.8881 2.72219 17.0002 2.64477C17.1123 2.56735 17.2935 2.45255 17.4056 2.38848C17.5177 2.32708 17.7203 2.23364 17.8587 2.18025C17.997 2.12685 18.2163 2.06812 18.3475 2.0441C18.4786 2.02274 18.6384 2.00672 18.7052 2.00672C18.7696 2.00939 18.8888 2.02007 18.9675 2.03075Z" fill="white"/>
<path d="M22.6211 21.4128H21.2598L21.2591 22.0157L13.7357 22.029V21.4128H12.2643V22.029L4.74095 22.0157L4.74023 21.4128H3.37891C3.38405 22.0927 3.39292 22.2729 3.40797 22.3467C3.42792 22.4361 3.46642 22.5623 3.49664 22.6376L3.50335 22.6537C3.53435 22.7285 3.6035 22.8539 3.65596 22.934C3.71081 23.0168 3.81096 23.1343 3.88011 23.1957C3.94688 23.2597 4.06134 23.3425 4.13526 23.3825C4.2068 23.4199 4.3308 23.4733 4.40949 23.5H21.5905C21.6692 23.4733 21.7932 23.4199 21.8648 23.3825C21.9387 23.3425 22.0531 23.2597 22.1199 23.1957C22.1891 23.1343 22.2892 23.0168 22.3441 22.934C22.3965 22.8539 22.4657 22.7285 22.4967 22.6537L22.5034 22.6376C22.5336 22.5623 22.5721 22.4361 22.5921 22.3467C22.6071 22.2729 22.616 22.0927 22.6211 21.4128Z" fill="white"/>
</g>
<defs>
<clipPath id="clip0_6815_320">
<rect width="26" height="24" fill="white"/>
</clipPath>
</defs>
</svg>
