<svg width="33" height="34" viewBox="0 0 33 34" fill="none" xmlns="http://www.w3.org/2000/svg">
<g clip-path="url(#clip0_6848_2005)">
<path fill-rule="evenodd" clip-rule="evenodd" d="M7.64136 0.0603351C7.72772 0.0438198 7.81591 0.0287542 7.88401 0.0171214C7.92576 0.00998959 7.96032 0.0040841 7.98183 0L9.10251 0.0393004C9.12354 0.0436611 9.17942 0.0569036 9.25345 0.0748502C9.35837 0.092227 9.45564 0.112604 9.55085 0.136171C9.75054 0.18962 10.1043 0.310553 10.3408 0.404176C10.5773 0.497799 10.9771 0.694255 11.229 0.846793C11.481 0.995443 11.8343 1.22927 12.0103 1.36756C12.1863 1.50197 12.5072 1.76974 12.7196 1.95988C12.932 2.15002 13.2818 2.48883 13.4929 2.71397C13.7041 2.93911 14.0819 3.37231 14.3286 3.6765C14.5752 3.98459 14.9408 4.46799 15.1396 4.75111C15.3279 5.02791 15.6267 5.47877 15.8132 5.77449L15.8332 5.80618C16.0177 6.10049 16.2608 6.50968 16.372 6.71198C16.4803 6.90492 16.5797 7.06811 16.601 7.07751C16.623 7.06957 16.7333 6.91346 16.8545 6.72825C16.9793 6.53391 17.2498 6.14203 17.454 5.86081L17.476 5.83054C17.6823 5.54807 18.0112 5.11836 18.218 4.85488C18.4356 4.5858 18.8335 4.12814 19.1005 3.83736C19.3674 3.55048 19.7739 3.14372 20 2.93332C20.2261 2.72293 20.5981 2.40844 20.823 2.23304C21.0479 2.05765 21.3863 1.81211 21.5712 1.68986C21.7562 1.56373 22.1247 1.35424 22.3862 1.22291C22.648 1.08768 23.0602 0.918599 23.3026 0.84112C23.545 0.763641 23.9062 0.666807 24.109 0.626927C24.2056 0.609827 24.3041 0.596047 24.4099 0.585776C24.485 0.572856 24.5417 0.563407 24.563 0.560473L25.6838 0.596732C25.7049 0.602259 25.739 0.610465 25.7802 0.620402C25.8473 0.636594 25.9343 0.657564 26.0193 0.679857L26.0353 0.684076C26.187 0.720333 26.4343 0.802641 26.5851 0.86223C26.736 0.921819 26.9377 1.01816 27.0295 1.07576C27.1249 1.12959 27.3046 1.26023 27.433 1.36578C27.5616 1.46744 27.7729 1.68869 27.9028 1.85269C28.0325 2.02058 28.2072 2.29899 28.2882 2.46912C28.3691 2.64315 28.475 2.89978 28.5188 3.04141C28.5626 3.18304 28.6211 3.40303 28.6445 3.53229C28.6713 3.66167 28.7043 3.91584 28.7189 4.09931C28.7368 4.28679 28.7311 4.65644 28.7105 4.95552C28.6902 5.24294 28.6461 5.61909 28.6055 5.78902C28.5684 5.95907 28.4932 6.22905 28.4392 6.38685C28.3851 6.54465 28.2641 6.83256 28.1743 7.0203C28.081 7.20792 27.9401 7.4679 27.8594 7.59366C27.7752 7.71929 27.5894 7.96998 27.4441 8.15585C27.296 8.33698 27.1764 8.49218 27.1751 8.50495C27.1747 8.51662 28.0177 8.55282 30.9224 8.65074C30.9682 8.66875 31.0115 8.68621 31.0525 8.70312L31.1862 8.75696C31.3337 8.81254 31.5452 8.92868 31.6568 9.01809C31.7685 9.10362 31.9396 9.28069 32.0394 9.41252C32.1357 9.54035 32.254 9.739 32.299 9.84563C32.344 9.95226 32.407 10.1413 32.4447 10.2593C32.462 10.3153 32.4747 10.3601 32.4818 10.4602C32.491 10.5072 32.4977 10.548 32.5 10.5726L31.9333 14.267L0.767844 13.2164L0.5 9.49392C0.503975 9.46944 0.513444 9.42927 0.525843 9.38301C0.539799 9.28358 0.555462 9.23977 0.576571 9.18505C0.622202 9.06979 0.69799 8.88547 0.750164 8.78212C0.802337 8.67876 0.933916 8.48854 1.03881 8.36749C1.14731 8.24267 1.33014 8.07754 1.44745 7.99974C1.5649 7.91805 1.78378 7.81642 1.93473 7.77089L2.07186 7.72618C2.11391 7.71207 2.15833 7.69758 2.20527 7.68268C5.10993 7.7806 5.95348 7.8011 5.95388 7.78943C5.9534 7.7766 5.84466 7.61385 5.70931 7.42317C5.57701 7.22794 5.40879 6.96532 5.33336 6.8343C5.2614 6.7034 5.13857 6.43453 5.05833 6.24106C4.98155 6.0477 4.88047 5.75231 4.83734 5.59123C4.7942 5.43016 4.73757 5.15573 4.71219 4.98357C4.68334 4.8113 4.665 4.43304 4.66442 4.14493C4.66425 3.84515 4.68382 3.47596 4.71449 3.29012C4.74156 3.10805 4.79185 2.85669 4.82747 2.72942C4.85961 2.60203 4.933 2.38648 4.98637 2.24813C5.03974 2.10977 5.1629 1.86087 5.2555 1.69269C5.34798 1.5284 5.54121 1.26239 5.68214 1.10363C5.82293 0.948757 6.04887 0.742249 6.18407 0.649477C6.3194 0.552817 6.50758 0.434579 6.60647 0.387301C6.70203 0.336018 6.90984 0.25348 7.06439 0.204186C7.21895 0.154892 7.47134 0.0894293 7.62509 0.0634671L7.64136 0.0603351ZM7.70495 2.30084C7.79264 2.27654 7.95681 2.25093 8.072 2.23535C8.18705 2.22366 8.3611 2.21395 8.45493 2.21322C8.5521 2.2165 8.78381 2.24767 8.97361 2.28521C9.16329 2.32664 9.47963 2.42296 9.67825 2.50751C9.87687 2.59207 10.1672 2.73812 10.3272 2.83306C10.4872 2.93189 10.7452 3.10799 10.9044 3.22626C11.0637 3.34453 11.3137 3.55151 11.462 3.68499C11.6103 3.81846 11.876 4.07658 12.0503 4.26154C12.2248 4.44262 12.5792 4.84777 12.8359 5.16399C13.0926 5.4802 13.4449 5.94758 13.6205 6.19877C13.796 6.44995 14.0504 6.83617 14.1853 7.05484C14.3238 7.27363 14.5111 7.58751 14.7733 8.04795L12.8712 7.99551C11.6702 7.96281 10.8481 7.92342 10.6408 7.88918C10.4611 7.85977 10.1336 7.78643 9.91682 7.72462C9.70019 7.65892 9.40466 7.56331 9.26424 7.50407C9.12382 7.44483 8.84711 7.30703 8.64955 7.19136C8.45186 7.07958 8.16994 6.89099 8.02124 6.76919C7.8724 6.65127 7.65361 6.44534 7.53293 6.31669C7.41238 6.18415 7.24271 5.96431 7.1538 5.82115C7.06822 5.68201 6.94446 5.44035 6.88357 5.29036C6.81922 5.14025 6.74471 4.88079 6.71545 4.72018C6.68273 4.55946 6.65359 4.29374 6.64863 4.13396C6.6402 3.97405 6.65952 3.71386 6.68566 3.55901C6.71167 3.40806 6.76783 3.18804 6.80639 3.07644C6.85215 2.95729 6.9477 2.80478 7.04512 2.69906C7.13547 2.59699 7.28547 2.47747 7.37743 2.42995C7.47286 2.38256 7.61727 2.32514 7.70495 2.30084ZM25.8029 2.91092C25.717 2.88078 25.555 2.84417 25.4411 2.82086C25.3271 2.80145 25.1542 2.78004 25.0606 2.773C24.9634 2.76972 24.7301 2.78522 24.5382 2.80989C24.3461 2.83846 24.0239 2.91324 23.82 2.98423C23.6161 3.05522 23.3164 3.18138 23.1503 3.26532C22.984 3.35315 22.7145 3.51148 22.5475 3.61875C22.3806 3.72602 22.117 3.91569 21.9599 4.03887C21.8028 4.16205 21.5202 4.40168 21.3336 4.57448C21.1472 4.74339 20.7659 5.12375 20.4882 5.42195C20.2105 5.72014 19.827 6.16272 19.6347 6.40151C19.4424 6.6403 19.1623 7.00849 19.0127 7.21757C18.8597 7.42654 18.6514 7.72708 18.3583 8.16881L20.2597 8.24458C21.4601 8.29283 22.283 8.30889 22.4921 8.28869C22.6734 8.27144 23.0052 8.22034 23.2257 8.17326C23.4463 8.1223 23.7477 8.04681 23.8918 7.99717C24.036 7.94752 24.3215 7.82867 24.5265 7.72657C24.7313 7.62836 25.0255 7.45919 25.1822 7.34768C25.3387 7.24006 25.5711 7.04934 25.7002 6.92911C25.8296 6.80499 26.0139 6.59708 26.1123 6.46025C26.2072 6.32718 26.3472 6.09442 26.4182 5.94887C26.4927 5.80344 26.5847 5.5496 26.6249 5.39133C26.6685 5.23318 26.7157 4.97004 26.7316 4.81095C26.7509 4.65198 26.7494 4.39109 26.7339 4.23484C26.7183 4.08248 26.6772 3.85918 26.6464 3.74524C26.6089 3.62329 26.524 3.4647 26.434 3.35266C26.3508 3.24474 26.2093 3.11539 26.1208 3.06179C26.0288 3.00808 25.8887 2.94107 25.8029 2.91092Z" fill="white"/>
<path d="M2.10132 16.8795L3.66462 31.35C3.67153 32.251 3.68345 32.3741 3.70367 32.4719C3.73049 32.5903 3.78224 32.7576 3.82287 32.8573L3.83188 32.8787C3.87355 32.9777 3.9665 33.144 4.03702 33.2501C4.11074 33.3598 4.24536 33.5154 4.33831 33.5968C4.42806 33.6816 4.58191 33.7913 4.68127 33.8444C4.77743 33.8939 4.9441 33.9646 5.04987 34L27.4907 33.9021C27.5965 33.8668 27.7631 33.796 27.8593 33.7465C27.9587 33.6934 28.1125 33.5838 28.2023 33.4989C28.2952 33.4175 28.4298 33.2619 28.5036 33.1522C28.5741 33.0461 28.667 32.8799 28.7087 32.7808L28.7177 32.7594C28.7583 32.6597 28.8101 32.4924 28.8369 32.3741C28.8571 32.2762 28.869 32.1531 28.876 31.2522L30.6066 16.8795H2.10132Z" fill="white"/>
</g>
<defs>
<clipPath id="clip0_6848_2005">
<rect width="33" height="34" fill="white"/>
</clipPath>
</defs>
</svg>
