<svg width="247" height="118" viewBox="0 0 247 118" fill="none" xmlns="http://www.w3.org/2000/svg">
<path d="M215.665 32.9379C216.005 32.8695 216.357 32.8068 216.457 32.7897C216.557 32.7784 216.949 32.7726 217.337 32.7841C217.894 32.7955 218.141 32.8354 218.51 32.9493C218.769 33.029 219.097 33.1658 219.244 33.257C219.391 33.3481 219.614 33.5362 219.737 33.6728C219.866 33.8096 220.031 34.0489 220.107 34.2084C220.178 34.3623 220.283 34.6985 220.342 34.9491C220.418 35.2968 220.448 35.667 220.448 36.5445C220.448 37.1712 220.412 37.929 220.371 38.2253C220.33 38.5216 220.248 39.1996 220.183 39.7351C220.119 40.265 220.043 40.9088 220.007 41.1595C219.978 41.4102 219.878 42.1167 219.796 42.7264C219.714 43.336 219.544 44.578 219.414 45.4897C219.285 46.4013 219.168 47.2046 219.156 47.2844C219.144 47.3641 219.039 48.0422 218.921 48.7943C218.804 49.5463 218.645 50.5833 218.563 51.1018C218.487 51.6203 218.352 52.4522 218.27 52.9536C218.188 53.4549 218.094 54.019 218.07 54.207C218.041 54.395 217.906 55.2041 217.777 56.0017C217.642 56.7994 217.46 57.9162 217.366 58.4802C217.272 59.0443 217.025 60.52 216.815 61.7564C216.604 62.9926 216.293 64.7647 216.134 65.6877C215.97 66.6106 215.665 68.3313 215.453 69.5051C215.248 70.6787 215.007 71.9892 214.931 72.4108C214.849 72.8324 214.743 73.3965 214.696 73.6642C214.649 73.9321 214.514 74.6613 214.403 75.2881C214.285 75.9148 214.045 77.1853 213.869 78.1085C213.692 79.0314 213.481 80.0455 213.399 80.3589C213.317 80.6724 213.158 81.1965 213.047 81.5269C212.935 81.8574 212.7 82.41 212.524 82.752C212.348 83.0938 212.027 83.6065 211.804 83.8914C211.498 84.2789 211.293 84.4783 210.952 84.7005C210.706 84.8657 210.36 85.0424 210.195 85.0994C209.996 85.1564 209.602 85.2019 209.092 85.2133C208.452 85.2361 208.188 85.219 207.7 85.1221C207.367 85.0538 206.868 84.9227 206.586 84.8202C206.299 84.7233 205.776 84.4954 205.424 84.3188C205.072 84.1421 204.385 83.749 203.898 83.4413C203.417 83.1337 202.543 82.5526 201.962 82.1537C201.381 81.7549 199.52 80.5356 197.825 79.436C196.129 78.342 193.693 76.7467 192.414 75.8977C191.129 75.043 190.049 74.348 190.019 74.348C189.99 74.348 189.955 74.3253 189.949 74.3024C189.937 74.2739 189.086 73.7042 188.054 73.0375C187.021 72.3709 185.964 71.6645 185.706 71.4764C185.448 71.2884 185.066 70.975 184.861 70.787C184.655 70.5989 184.373 70.3028 184.238 70.1318C184.105 69.9608 183.923 69.6817 183.835 69.5164C183.752 69.3569 183.641 69.0606 183.588 68.8613C183.524 68.622 183.506 68.3996 183.529 68.1775C183.547 68.0009 183.612 67.716 183.67 67.5508C183.729 67.3912 183.882 67.0893 184.005 66.8842C184.134 66.679 184.385 66.3315 184.567 66.1149C184.755 65.8984 185.36 65.2774 185.923 64.7475C186.481 64.2119 187.361 63.3802 187.878 62.8958C188.394 62.4058 189.186 61.6766 189.638 61.272C190.084 60.8618 190.653 60.349 190.9 60.1324C191.14 59.916 191.71 59.4032 192.162 58.9929C192.614 58.5828 193.207 58.0472 193.481 57.8022C193.757 57.5514 194.168 57.1755 194.391 56.9703C194.614 56.7595 195.289 56.1442 195.888 55.6029C196.487 55.056 197.843 53.8025 198.91 52.8054C199.978 51.814 201.352 50.5093 201.968 49.8996C202.584 49.29 203.293 48.5778 203.546 48.31C203.798 48.0422 204.121 47.6719 204.268 47.4838C204.508 47.1647 204.526 47.1192 204.503 46.8571C204.485 46.6976 204.426 46.4754 204.362 46.3557C204.288 46.2076 204.173 46.0974 204.015 46.0253C203.886 45.9683 203.687 45.917 203.575 45.917C203.464 45.917 203.252 45.9455 203.106 45.9796C202.959 46.0139 202.549 46.2018 202.197 46.407C201.845 46.6121 201.217 46.9882 200.806 47.2445C200.395 47.5009 199.849 47.8371 199.602 47.991C199.35 48.1447 196.915 49.7173 194.186 51.4779C191.457 53.2441 188.33 55.2725 187.232 55.9961C186.134 56.714 184.473 57.8022 183.535 58.4176C182.596 59.0271 180.712 60.2635 179.339 61.1581C177.966 62.0583 176.528 62.9642 176.14 63.175C175.753 63.3858 175.16 63.6763 174.82 63.8245C174.48 63.967 173.94 64.1607 173.618 64.2576C173.295 64.3544 172.778 64.474 172.473 64.5253C172.038 64.5995 171.698 64.6108 170.947 64.588C170.413 64.5652 169.756 64.5139 169.48 64.4627C169.205 64.417 168.852 64.3544 168.688 64.3203C168.529 64.2917 168.33 64.2576 168.248 64.2405C168.166 64.2291 167.984 64.1892 167.837 64.1549C167.69 64.1208 167.044 63.9613 166.399 63.8018C165.753 63.6422 164.739 63.3687 164.14 63.1978C163.541 63.0269 162.221 62.6337 161.205 62.3261C160.191 62.0127 159.052 61.6595 158.682 61.5398C158.312 61.4144 157.766 61.2208 157.479 61.1011C157.191 60.9871 156.769 60.7877 156.54 60.6567C156.311 60.5313 156.012 60.3149 155.866 60.1838C155.719 60.0527 155.525 59.8077 155.431 59.6425C155.314 59.4316 155.249 59.2266 155.232 58.9929C155.214 58.7308 155.238 58.5713 155.343 58.3092C155.437 58.0643 155.584 57.8592 155.86 57.5743C156.077 57.3635 156.469 57.0387 156.745 56.8621C157.021 56.6854 157.467 56.4177 157.743 56.2753C158.019 56.1271 158.483 55.9105 158.77 55.7852C159.058 55.6599 162.596 54.1671 166.633 52.4693C170.665 50.7714 175.647 48.6746 177.696 47.8143C179.743 46.9483 183.958 45.1877 187.056 43.8943C190.154 42.6067 194.403 40.8518 196.504 40.0029C198.599 39.1597 201.14 38.1398 202.138 37.741C203.135 37.3422 204.937 36.6414 206.129 36.1741C207.32 35.7126 208.904 35.1087 209.649 34.8351C210.395 34.5617 211.569 34.1458 212.26 33.9121C212.953 33.6786 213.863 33.388 214.285 33.2683C214.708 33.1487 215.324 33.0006 215.665 32.9379Z" fill="white"/>
<path d="M136.769 77.88H130.213L123.268 67.8781L116.267 77.88H109.767L119.602 63.9448L110.323 50.74H116.879L123.268 59.9552L129.601 50.74H136.157L126.879 63.9448L136.769 77.88Z" fill="white"/>
<path d="M73.7982 49.1887C78.3677 52.4445 83.9655 54.3602 90.0114 54.3602V42.7642C88.8671 42.7644 87.7259 42.6453 86.6065 42.4089V51.5367C80.5611 51.5367 74.964 49.6213 70.3936 46.3656V70.0303C70.3936 81.8686 60.7655 91.4648 48.8897 91.4648C44.4585 91.4648 40.3397 90.1295 36.9185 87.8392C40.8234 91.8192 46.2691 94.288 52.2936 94.288C64.1704 94.288 73.7987 84.6919 73.7987 72.8531L73.7982 49.1887ZM77.9987 37.4896C75.6635 34.9467 74.13 31.6604 73.7982 28.027V26.5356H70.5717C71.3839 31.1533 74.1544 35.0984 77.9987 37.4896ZM44.4298 78.7551C43.1252 77.05 42.42 74.964 42.4232 72.8191C42.4232 67.4049 46.8269 63.0147 52.2601 63.0147C53.2725 63.0143 54.2789 63.1692 55.244 63.4742V51.6186C54.1162 51.4648 52.9782 51.3992 51.8406 51.4232V60.6509C50.875 60.3457 49.8681 60.1909 48.8552 60.1917C43.4222 60.1917 39.0187 64.5813 39.0187 69.9963C39.0187 73.8253 41.2197 77.1401 44.4298 78.7551Z" fill="#FF004F"/>
<path d="M70.3951 46.3657C74.9656 49.6213 80.5624 51.5367 86.6079 51.5367V42.409C83.2333 41.6923 80.246 39.9347 78 37.4899C74.1555 35.0984 71.3854 31.1534 70.5732 26.5358H62.0981V72.8528C62.0788 78.2525 57.6826 82.6245 52.2611 82.6245C49.0666 82.6245 46.2283 81.1068 44.4309 78.7551C41.2211 77.1405 39.0199 73.8254 39.0199 69.9969C39.0199 64.5823 43.4234 60.1923 48.8565 60.1923C49.8974 60.1923 50.9006 60.3538 51.8418 60.6514V51.4238C40.1744 51.664 30.7911 61.1665 30.7911 72.8531C30.7911 78.687 33.1277 83.9756 36.9201 87.84C40.3415 90.1297 44.46 91.4654 48.8914 91.4654C60.7675 91.4654 70.3953 81.8687 70.3953 70.0305L70.3951 46.3657Z" fill="white"/>
<path d="M86.6081 42.4075V39.94C83.565 39.9446 80.5821 39.0952 78.0003 37.4888C80.2857 39.9828 83.295 41.702 86.6081 42.4075ZM70.5732 26.5345C70.4957 26.0933 70.4363 25.6492 70.3951 25.2031V23.7117H58.6929V70.0292C58.6743 75.4284 54.2781 79.8004 48.8565 79.8004C47.3194 79.8027 45.8034 79.4444 44.4309 78.7545C46.2283 81.1058 49.0666 82.6232 52.2611 82.6232C57.6823 82.6232 62.079 78.2517 62.0981 72.852V26.5348L70.5732 26.5345ZM51.8425 51.4225V48.7951C50.8647 48.6618 49.8789 48.5951 48.8919 48.5956C37.0145 48.5956 27.3867 58.192 27.3867 70.0292C27.3867 77.4507 31.1706 83.9912 36.9206 87.8385C33.1282 83.9743 30.7916 78.6855 30.7916 72.8518C30.7916 61.1654 40.1746 51.6627 51.8425 51.4225Z" fill="#00F7EF"/>
</svg>
