<svg width="34" height="32" viewBox="0 0 34 32" fill="none" xmlns="http://www.w3.org/2000/svg">
<path d="M16.8386 5.24426C17.2192 4.91858 17.7808 4.91858 18.1614 5.24426L29.643 15.0688C30.3595 15.6818 29.9252 16.8538 28.9816 16.8538H27.3248L25.914 25.3044C25.7506 26.2828 24.9026 27 23.9089 27H18.5164V19.3903C18.5164 19.1101 18.2888 18.883 18.0082 18.883H16.9918C16.7112 18.883 16.4836 19.1101 16.4836 19.3903V27H11.0911C10.0974 27 9.24936 26.2828 9.086 25.3044L7.67515 16.8538H6.0184C5.0748 16.8538 4.64052 15.6818 5.35696 15.0688L16.8386 5.24426Z" fill="white" class="icon-color" />
</svg>
