<svg width="52" height="46" viewBox="0 0 52 46" fill="none" xmlns="http://www.w3.org/2000/svg">
<g clip-path="url(#clip0_6815_369)">
<mask id="mask0_6815_369" style="mask-type:luminance" maskUnits="userSpaceOnUse" x="0" y="0" width="52" height="46">
<path d="M52 0H0V46H52V0Z" fill="white"/>
</mask>
<g mask="url(#mask0_6815_369)">
<path d="M19.3323 34.3352C19.3323 34.3352 19.3332 37.6703 22.6668 37.6703H35.3319C36.6657 37.6703 37.8827 36.9604 38.6664 35.003L41.5372 26.3897C41.8345 25.7017 42 25.0624 42 24.3281V20.9997C42 20.9997 42 18.3325 39.3333 18.3325H29.9993L31.3331 13.6641C32 11.6648 32 10.9969 30.6662 9.66367L29.3332 8.32962L19.9992 17.6646C19.9992 17.6646 19.3323 18.3316 19.3323 19.6657V34.3352Z" fill="white"/>
<path d="M10 37.6703V19.6665H16.0004V37.6703H10Z" fill="white"/>
<path d="M19.3323 34.3352C19.3323 34.3352 19.3332 37.6703 22.6668 37.6703H35.3319C36.6657 37.6703 37.8827 36.9604 38.6664 35.003L41.5372 26.3897C41.8345 25.7017 42 25.0624 42 24.3281V20.9997C42 20.9997 42 18.3325 39.3333 18.3325H29.9993L31.3331 13.6641C32 11.6648 32 10.9969 30.6662 9.66367L29.3332 8.32962L19.9992 17.6646C19.9992 17.6646 19.3323 18.3316 19.3323 19.6657V34.3352Z" stroke="white" stroke-linecap="round" stroke-linejoin="round"/>
<path d="M10 37.6703V19.6665H16.0004V37.6703H10Z" stroke="white" stroke-linecap="round" stroke-linejoin="round"/>
</g>
</g>
<defs>
<clipPath id="clip0_6815_369">
<rect width="52" height="46" fill="white"/>
</clipPath>
</defs>
</svg>
