<svg width="30" height="28" viewBox="0 0 30 28" fill="none" xmlns="http://www.w3.org/2000/svg">
<path d="M24.3536 15.9547C24.3536 17.3847 23.2233 18.544 21.8289 18.544C20.4345 18.544 19.3042 17.3847 19.3042 15.9547C19.3042 14.5246 20.4345 13.3654 21.8289 13.3654C23.2233 13.3654 24.3536 14.5246 24.3536 15.9547Z" fill="white" fill-opacity="0.5"/>
<path fill-rule="evenodd" clip-rule="evenodd" d="M3 7.78118C3 7.78118 3.15181 5.96206 4.20152 5.06708C4.47044 4.8378 4.83738 4.64957 5.24836 4.49532C6.6836 3.95663 8.84917 3.72158 10.7127 3.51931C11.381 3.44678 12.0104 3.37845 12.5534 3.30186L21.1597 2.08781C21.2419 2.07622 21.318 2.06408 21.3896 2.05266C21.9428 1.96449 22.229 1.91887 22.9696 2.49336C23.7537 3.1017 23.943 4.11559 23.943 4.11559V6.95447H21.8441C21.8105 6.95447 21.7833 6.92654 21.7833 6.89208V5.61302L6.02411 6.88939C5.57043 6.92614 5.22053 7.31444 5.22053 7.78118H23.1065C25.2568 7.78118 27 9.56898 27 11.7744V22.0068C27 24.2122 25.2568 26 23.1065 26H6.89354C4.7432 26 3 24.2122 3 22.0068V7.78118ZM8.04943 9.18502C5.89909 9.18502 4.15589 10.9728 4.15589 13.1782V20.4158C4.15589 22.6212 5.89909 24.409 8.04943 24.409H21.9202C24.0705 24.409 25.8137 22.6212 25.8137 20.4158V13.1782C25.8137 10.9728 24.0705 9.18502 21.9202 9.18502H8.04943Z" fill="white" fill-opacity="0.5"/>
</svg>
