<svg width="39" height="39" viewBox="0 0 39 39" fill="none" xmlns="http://www.w3.org/2000/svg">
<path fill-rule="evenodd" clip-rule="evenodd" d="M22.3145 9.75C21.0635 7.58333 17.9362 7.58333 16.6853 9.75L6.83431 26.8125C5.58338 28.9791 7.14704 31.6875 9.64889 31.6875H29.351C31.8529 31.6875 33.4165 28.9791 32.1655 26.8125L22.3145 9.75ZM21.125 14.625C21.125 13.7275 20.3975 13 19.5 13C18.6025 13 17.875 13.7275 17.875 14.625V14.8571C17.875 15.7546 18.6025 16.4822 19.5 16.4822C20.3975 16.4822 21.125 15.7546 21.125 14.8571V14.625ZM19.5 29.25C18.6025 29.25 17.875 28.5225 17.875 27.625V19.4044C17.875 18.507 18.6025 17.7794 19.5 17.7794C20.3975 17.7794 21.125 18.507 21.125 19.4044V27.625C21.125 28.5225 20.3975 29.25 19.5 29.25Z" fill="white"/>
</svg>
