<svg width="10" height="10" viewBox="0 0 10 10" fill="none" xmlns="http://www.w3.org/2000/svg">
<g clip-path="url(#clip0_6815_350)">
<path d="M4.09106 1.36362C4.09106 0.861542 4.49808 0.454529 5.00016 0.454529C5.50223 0.454529 5.90925 0.861542 5.90925 1.36362V8.63635C5.90925 9.13842 5.50223 9.54544 5.00016 9.54544C4.49808 9.54544 4.09106 9.13843 4.09106 8.63635V1.36362Z" fill="white"/>
<path d="M8.63641 4.09088C9.13848 4.09088 9.5455 4.4979 9.5455 4.99997C9.5455 5.50205 9.13849 5.90906 8.63641 5.90906H1.36368C0.861603 5.90906 0.45459 5.50205 0.45459 4.99997C0.45459 4.49789 0.861603 4.09088 1.36368 4.09088H8.63641Z" fill="white"/>
</g>
<defs>
<clipPath id="clip0_6815_350">
<rect width="9.09091" height="9.09091" fill="white" transform="translate(0.45459 0.454529)"/>
</clipPath>
</defs>
</svg>
