<svg width="14" height="14" viewBox="0 0 14 14" fill="none" xmlns="http://www.w3.org/2000/svg">
<g clip-path="url(#clip0_6815_579)">
<mask id="mask0_6815_579" style="mask-type:luminance" maskUnits="userSpaceOnUse" x="0" y="0" width="14" height="14">
<path d="M14 0H0V14H14V0Z" fill="white"/>
</mask>
<g mask="url(#mask0_6815_579)">
<path fill-rule="evenodd" clip-rule="evenodd" d="M7 14C10.866 14 14 10.866 14 7C14 3.13401 10.866 0 7 0C3.13403 0 0 3.13401 0 7C0 10.866 3.13403 14 7 14ZM10.4493 3.00182C10.4355 3.00443 10.387 3.01398 10.34 3.02441C10.293 3.03397 10.208 3.05657 10.1497 3.07482C10.0914 3.09307 9.96588 3.1374 9.87036 3.17303C9.77478 3.20867 9.61279 3.27212 9.50995 3.31384C9.4071 3.35555 9.18848 3.44768 9.02411 3.51807C8.85968 3.58935 8.61108 3.69624 8.47345 3.75709C8.33575 3.81792 7.98511 3.9735 7.69604 4.10213C7.40613 4.23163 6.81982 4.49932 6.39227 4.69574C5.96466 4.89303 5.38324 5.16159 5.10065 5.29369C4.81799 5.42493 4.13049 5.74477 3.57416 6.00377C3.01703 6.26277 2.52875 6.49048 2.48901 6.50961C2.44934 6.52872 2.38538 6.56175 2.34735 6.58434C2.30927 6.60607 2.24774 6.64693 2.20966 6.67387C2.17157 6.70081 2.11737 6.75035 2.0874 6.78251C2.04932 6.82597 2.02905 6.85725 2.01611 6.89462C2.00757 6.91811 2.00293 6.93621 2.00104 6.95525C1.99969 6.96861 1.99976 6.98243 2.00073 6.99892C2.00317 7.03455 2.01208 7.06584 2.02826 7.098C2.0412 7.1232 2.06793 7.16058 2.0882 7.18056C2.10846 7.20055 2.14972 7.23358 2.18134 7.2527C2.21289 7.27269 2.27118 7.30312 2.31091 7.3205C2.35059 7.33875 2.4259 7.36829 2.47687 7.38742C2.52789 7.40567 2.685 7.45956 2.82513 7.50735C2.93604 7.54452 3.07336 7.58986 3.16675 7.62007C3.19128 7.62801 3.21277 7.63491 3.22998 7.64034C3.28333 7.65716 3.3606 7.6805 3.43262 7.70148C3.47217 7.71301 3.51019 7.72383 3.54175 7.73246C3.63086 7.7568 3.71991 7.78113 3.74017 7.78635C3.76044 7.79156 3.78552 7.79765 3.79688 7.79939C3.80481 7.80121 3.82074 7.80432 3.8371 7.80752L3.8576 7.81155C3.88025 7.81676 3.92883 7.82632 3.96692 7.83327C3.98602 7.8372 4.01825 7.84111 4.05499 7.84448C4.09161 7.84785 4.13263 7.85066 4.16937 7.8524C4.27301 7.85587 4.32001 7.85414 4.37994 7.84284C4.39496 7.84005 4.4137 7.83592 4.43359 7.8311C4.46948 7.82243 4.50922 7.81149 4.53784 7.80199C4.58234 7.78722 4.65686 7.75767 4.70386 7.73594C4.75079 7.71334 4.83258 7.66901 4.88605 7.63686C4.93945 7.6047 5.13788 7.46651 5.32739 7.32919C5.51685 7.19273 5.77679 7.00414 5.90637 6.91114C6.03595 6.81727 6.26514 6.65127 6.41656 6.54176C6.56799 6.43138 6.99963 6.12197 7.37616 5.85255L7.46967 5.78584C7.80682 5.54535 8.09174 5.34215 8.1236 5.32064C8.15759 5.29717 8.23291 5.2459 8.28961 5.20679C8.34631 5.16767 8.43292 5.11031 8.48151 5.07903C8.53009 5.04774 8.58679 5.01905 8.60706 5.01384C8.61975 5.01057 8.63586 5.00765 8.64996 5.00593C8.65839 5.00489 8.66608 5.00428 8.67181 5.00428C8.68719 5.00428 8.71478 5.0121 8.73254 5.02079C8.75415 5.0318 8.77008 5.04861 8.78033 5.0712C8.78925 5.08945 8.79736 5.12335 8.7998 5.14768C8.80304 5.18767 8.8006 5.19462 8.7674 5.24329C8.74713 5.27197 8.70264 5.32846 8.66779 5.36931C8.65143 5.38851 8.62109 5.4227 8.58466 5.4632C8.54364 5.50886 8.495 5.56252 8.44995 5.61179C8.36493 5.7048 8.17542 5.90382 8.02808 6.05505C7.93652 6.1495 7.82971 6.25903 7.74213 6.34847C7.68866 6.40306 7.64233 6.45016 7.61102 6.48179C7.52838 6.56435 7.4353 6.65822 7.40448 6.69038C7.37372 6.72166 7.31702 6.77903 7.27899 6.81727C7.24091 6.85464 7.15912 6.93634 7.0968 6.99892C7.03442 7.06149 6.95587 7.13972 6.92267 7.17274C6.88867 7.20577 6.81012 7.28399 6.7486 7.34657C6.68622 7.40828 6.5769 7.51952 6.50562 7.59427C6.46509 7.63631 6.40833 7.69551 6.35266 7.75378C6.31055 7.79792 6.2691 7.84152 6.23596 7.87673C6.1582 7.95757 6.07483 8.0523 6.04889 8.08533C6.0238 8.11835 5.98895 8.17136 5.97119 8.20265C5.95416 8.23395 5.93311 8.28001 5.92499 8.30434C5.91693 8.32954 5.90802 8.373 5.90558 8.39995C5.90234 8.43385 5.90479 8.46774 5.9137 8.50424C5.9162 8.51484 5.91974 8.52724 5.92377 8.53992C5.93121 8.56363 5.94031 8.58834 5.94769 8.60419C5.9527 8.61453 5.95984 8.62779 5.96783 8.64164C5.97937 8.66155 5.99255 8.68268 6.00354 8.69806C6.02216 8.72413 6.06104 8.76933 6.08942 8.798C6.11774 8.82669 6.17035 8.87449 6.20599 8.90317C6.24164 8.93185 6.38739 9.03962 6.52991 9.14131C6.67242 9.243 6.78986 9.32991 6.7915 9.33426C6.7923 9.33773 6.79718 9.34121 6.80121 9.34121C6.80524 9.34121 6.95428 9.44724 7.13159 9.57761C7.30817 9.70711 7.64423 9.95046 7.87823 10.1173C7.98505 10.1939 8.09662 10.2743 8.19397 10.3448C8.30988 10.4288 8.40558 10.4988 8.44916 10.5319C8.5293 10.5928 8.64996 10.6814 8.71637 10.7283C8.78357 10.7753 8.87836 10.8352 8.92694 10.8622C8.97552 10.8891 9.04761 10.9239 9.08728 10.9387C9.12616 10.9543 9.19495 10.9743 9.24115 10.9847C9.30835 10.9995 9.34479 11.0021 9.43304 10.9986C9.47266 10.9977 9.50714 10.995 9.53467 10.9914C9.55609 10.9885 9.57324 10.985 9.58527 10.9812C9.59686 10.9768 9.61505 10.9676 9.63458 10.9563C9.65326 10.9454 9.67316 10.9327 9.68976 10.9204C9.73669 10.8865 9.76508 10.8561 9.80719 10.797C9.83795 10.7535 9.88251 10.6753 9.9068 10.6232C9.93109 10.571 9.96344 10.4867 9.97882 10.4363C9.99426 10.3859 10.0161 10.3059 10.0274 10.2581C10.0388 10.2103 10.0679 10.0556 10.0922 9.91483C10.1165 9.77403 10.1497 9.58022 10.1659 9.48461C10.1813 9.38901 10.2 9.27776 10.2064 9.23692C10.2129 9.19607 10.2275 9.11002 10.2388 9.04571L10.2698 8.85674C10.2827 8.77864 10.2973 8.68816 10.3109 8.60246C10.34 8.42342 10.3821 8.16093 10.4048 8.02014C10.4214 7.91309 10.4502 7.73116 10.4759 7.5672L10.4987 7.42044C10.5279 7.23184 10.5619 7.00674 10.5748 6.9207C10.5878 6.83466 10.6129 6.66431 10.6315 6.54263C10.6415 6.47433 10.6518 6.40549 10.6596 6.35316C10.6657 6.31226 10.6703 6.28144 10.6721 6.26885C10.6753 6.24017 10.6882 6.15413 10.6996 6.07764C10.7109 6.00117 10.7296 5.87428 10.7401 5.79518C10.7514 5.71609 10.7733 5.55791 10.7894 5.44318L10.8218 5.21287C10.8235 5.2007 10.8397 5.07816 10.8575 4.93909C10.8753 4.80003 10.8988 4.61057 10.9101 4.51757L10.9224 4.41804C10.9299 4.3576 10.9366 4.30341 10.9393 4.27856C10.9417 4.25999 10.9454 4.22729 10.9495 4.18931L10.9784 3.92641C10.9828 3.88715 10.9868 3.85246 10.9895 3.83096C10.9951 3.78577 11 3.67017 11 3.57457C11 3.44073 10.996 3.38423 10.9854 3.33121C10.9773 3.29298 10.9628 3.24169 10.953 3.21823C10.9475 3.20553 10.9387 3.18951 10.929 3.17413C10.9202 3.16004 10.9105 3.1465 10.902 3.13653C10.885 3.11567 10.8542 3.08699 10.834 3.07308C10.8137 3.05918 10.7684 3.03832 10.7328 3.02615C10.6818 3.00877 10.6478 3.00269 10.5708 3.00095C10.5173 2.99921 10.4631 3.00008 10.4493 3.00182Z" fill="white"/>
</g>
</g>
<defs>
<clipPath id="clip0_6815_579">
<rect width="14" height="14" fill="white"/>
</clipPath>
</defs>
</svg>
