<svg width="19" height="18" viewBox="0 0 19 18" fill="none" xmlns="http://www.w3.org/2000/svg">
<path d="M15.5 9C15.5 12.3137 12.8137 15 9.5 15C6.18629 15 3.5 12.3137 3.5 9C3.5 5.68629 6.18629 3 9.5 3C12.8137 3 15.5 5.68629 15.5 9Z" fill="#00AFFF"/>
<path d="M6.07055 9.3925C5.71419 9.04636 5.6436 8.55575 5.99996 8.20961C6.35632 7.86348 6.93408 7.86348 7.29044 8.20961L9.38746 10.2465C9.74381 10.5927 9.74381 11.1539 9.38746 11.5C9.0311 11.8461 8.52393 11.7755 8.16757 11.4294L6.07055 9.3925Z" fill="white"/>
<path d="M11.9584 6.50002C12.3148 6.15388 12.8926 6.15388 13.2489 6.50002C13.6053 6.84616 13.6053 7.40735 13.2489 7.75349L9.38759 11.5C9.03123 11.8461 8.52406 11.7755 8.1677 11.4294C7.81135 11.0833 7.74078 10.5927 8.09713 10.2465L11.9584 6.50002Z" fill="white"/>
</svg>
