<svg width="28" height="28" viewBox="0 0 28 28" fill="none" xmlns="http://www.w3.org/2000/svg">
<circle cx="14" cy="14" r="14" fill="url(#paint0_linear_6815_919)"/>
<path fill-rule="evenodd" clip-rule="evenodd" d="M15.3959 8.82758C14.7755 7.72414 13.2245 7.72414 12.6041 8.82758L7.71835 17.5172C7.09795 18.6207 7.87346 20 9.11427 20H18.8858C20.1266 20 20.902 18.6207 20.2816 17.5172L15.3959 8.82758ZM14.806 11.3103C14.806 10.8533 14.4451 10.4828 14 10.4828C13.5549 10.4828 13.1941 10.8533 13.1941 11.3103V11.4286C13.1941 11.8856 13.5549 12.2562 14 12.2562C14.4451 12.2562 14.806 11.8856 14.806 11.4286V11.3103ZM14 18.7586C13.5549 18.7586 13.1941 18.3881 13.1941 17.931V13.7444C13.1941 13.2874 13.5549 12.9169 14 12.9169C14.4451 12.9169 14.806 13.2874 14.806 13.7444V17.931C14.806 18.3881 14.4451 18.7586 14 18.7586Z" fill="white"/>
<defs>
<linearGradient id="paint0_linear_6815_919" x1="33.5" y1="22.5" x2="-2" y2="9" gradientUnits="userSpaceOnUse">
<stop stop-color="#EE034B" stop-opacity="0.8"/>
<stop offset="1" stop-color="#06DED9" stop-opacity="0.73"/>
</linearGradient>
</defs>
</svg>
